<svg version="1.1" id="Layer_1" xmlns="http://www.w3.org/2000/svg" xmlns:xlink="http://www.w3.org/1999/xlink" x="0px" y="0px"
	 width="100%" viewBox="0 0 512 512" enable-background="new 0 0 512 512" xml:space="preserve">
<path fill="#000000" opacity="1.000000" stroke="none" 
	d="
M1.000000,349.458069 
	C7.638817,342.273468 16.192862,338.370483 24.091721,333.548309 
	C48.895374,318.405914 73.833092,303.483063 98.732727,288.498169 
	C101.057045,287.099365 102.215179,285.010468 102.765144,282.474640 
	C105.230560,271.106812 111.423889,261.722046 118.783775,253.062012 
	C121.895134,249.401031 125.753220,246.317276 129.980469,244.025818 
	C137.251755,240.084213 142.755173,244.492004 147.930588,248.763702 
	C155.169312,254.738403 154.993927,254.747070 162.679169,250.049362 
	C181.233932,238.707428 199.803024,227.385727 218.518723,216.313446 
	C221.665451,214.451828 222.988281,212.017883 223.534210,208.848206 
	C226.447464,191.933960 234.396347,178.076004 248.191696,167.681870 
	C255.542892,162.143097 260.542023,162.197708 267.254272,168.106049 
	C280.398468,179.676041 289.639984,193.440079 291.375000,211.367981 
	C291.597382,213.665695 293.083252,214.782837 294.862732,215.855347 
	C315.322540,228.187088 335.781250,240.520950 356.180969,252.951614 
	C358.564056,254.403763 360.259918,254.395508 362.315948,252.422058 
	C365.062531,249.785797 367.997192,247.315201 371.040894,245.025894 
	C375.481232,241.686157 380.869324,241.834824 385.312805,245.128922 
	C399.670746,255.773010 409.297760,269.768341 411.859711,287.421692 
	C414.662933,306.737885 410.686340,324.755737 397.233002,339.902252 
	C394.268555,343.239807 391.144440,346.335907 387.836304,349.317444 
	C381.810028,354.748718 374.219147,354.736389 368.146057,349.234131 
	C357.517853,339.604980 349.087921,328.551025 345.301910,314.001740 
	C323.997894,326.867310 303.153046,339.455597 282.153259,352.137421 
	C283.162262,359.528503 289.876648,361.213196 294.789490,364.240295 
	C319.932709,379.732605 345.411469,394.683075 370.465210,410.316101 
	C377.116730,414.466522 382.070465,414.997101 389.071808,410.619415 
	C418.498810,392.219635 448.362000,374.517548 478.061676,356.553711 
	C478.761139,356.130615 479.415833,355.633636 480.669830,354.775146 
	C476.330261,350.211395 470.665619,348.152618 465.856812,344.909363 
	C462.982910,342.971069 459.600372,341.641296 457.879578,338.363098 
	C455.684479,334.181305 456.488525,328.366333 459.546997,325.399109 
	C463.051208,321.999390 469.320801,321.369659 474.401459,324.349426 
	C484.557739,330.306091 494.584106,336.484131 504.670013,342.561005 
	C507.503479,344.268188 510.625519,345.592102 512.742981,348.781616 
	C513.000000,352.361298 513.000000,355.722565 512.751221,359.769348 
	C511.189392,361.715546 510.054840,363.270874 508.535736,364.191742 
	C492.109863,374.148895 475.611298,383.986023 459.156342,393.895355 
	C428.789795,412.182343 398.437836,430.493591 368.082245,448.798767 
	C340.127686,465.656067 312.117218,482.422028 284.264008,499.445251 
	C277.099396,503.824097 269.346863,507.325897 263.000000,513.000000 
	C259.638702,513.000000 256.277435,513.000000 252.217987,512.769165 
	C216.046478,491.119019 180.576553,469.693970 145.098831,448.281860 
	C105.496819,424.380615 65.832954,400.581055 26.324772,376.525757 
	C17.725882,371.290161 8.230753,367.354767 1.000000,360.000000 
	C1.000000,356.638702 1.000000,353.277435 1.000000,349.458069 
M165.324692,396.787506 
	C184.522217,385.181915 203.712143,373.563751 222.923645,361.981384 
	C226.758087,359.669678 230.841248,357.657471 231.980957,352.758575 
	C231.903015,352.571869 231.883545,352.347626 231.769073,352.276642 
	C227.548874,349.660828 223.324295,347.052002 219.090973,344.457458 
	C213.247192,340.875885 211.348923,333.546692 214.884323,328.170166 
	C218.120865,323.248138 224.252426,322.129761 230.403305,325.521606 
	C235.196701,328.164917 239.992905,330.836884 244.560440,333.841797 
	C246.849182,335.347565 248.574509,335.538483 250.836746,333.993958 
	C254.955170,331.182129 259.214386,331.296448 263.339661,334.095978 
	C265.341125,335.454163 266.957947,335.431061 269.197205,334.071472 
	C292.908630,319.674805 316.724335,305.449890 340.491333,291.144562 
	C342.508179,289.930603 344.158447,288.397430 344.613647,285.814270 
	C345.129913,282.884705 345.747589,279.938995 346.704468,277.130890 
	C347.619965,274.444122 347.011871,273.090210 344.487335,271.595245 
	C330.634399,263.391754 317.020844,254.781494 303.112457,246.675705 
	C298.657562,244.079407 294.632263,240.354416 289.094299,239.346344 
	C284.810394,249.820251 279.261108,259.050262 271.400024,266.641602 
	C268.244568,269.688751 265.161682,273.281342 260.563354,274.204895 
	C254.684311,275.385651 249.995682,272.898346 245.709641,268.962708 
	C236.392776,260.407562 229.511597,250.249069 225.154633,237.979324 
	C205.963852,249.611191 187.265366,260.967957 168.532349,272.267456 
	C166.371902,273.570618 166.181793,275.055695 167.008667,277.290955 
	C168.914627,282.443298 169.996017,287.849091 170.287170,293.302155 
	C171.576126,317.443237 161.724319,336.414948 142.962982,351.119659 
	C139.058899,354.179596 132.475601,354.369415 128.522598,351.456329 
	C118.987289,344.429535 111.621506,335.613403 106.900040,324.691650 
	C105.215187,320.794250 103.643051,316.848145 101.821182,312.445038 
	C78.842842,326.355530 56.235573,340.041382 33.064274,354.068695 
	C35.584042,355.923920 37.217316,357.333984 39.037315,358.435486 
	C69.126106,376.646423 99.267326,394.771057 129.305710,413.064606 
	C132.745026,415.159149 135.448044,415.137146 138.786438,413.013641 
	C147.327927,407.580444 156.044037,402.421753 165.324692,396.787506 
M213.206039,393.844208 
	C194.372284,405.375519 175.081833,416.181244 155.852127,428.905548 
	C165.396133,434.679871 173.885712,439.845795 182.403870,444.964172 
	C206.298080,459.321655 230.234894,473.608826 254.058517,488.082367 
	C256.490753,489.559998 257.950806,489.328644 260.254883,487.936218 
	C288.970734,470.581940 317.800293,453.415680 346.511292,436.053345 
	C350.124573,433.868317 354.078583,432.027252 357.803284,428.290314 
	C335.630768,414.898224 313.933350,401.793121 291.521790,388.256653 
	C291.590881,408.294525 283.215363,423.502533 269.952393,435.954010 
	C259.311951,445.943420 255.640045,445.889587 244.790436,436.806122 
	C238.321136,431.389893 233.749771,424.451538 229.591522,417.226501 
	C224.615723,408.580902 222.606201,399.113098 222.390945,388.842255 
	C218.699402,389.532043 216.659180,392.264008 213.206039,393.844208 
M244.349777,385.623474 
	C243.160675,398.293976 248.688324,408.219635 256.757019,417.321533 
	C273.713409,401.130493 274.736877,374.062042 256.628998,357.794586 
	C250.031372,365.642212 244.254593,373.799011 244.349777,385.623474 
M122.353889,296.682343 
	C122.596481,307.136780 126.156410,316.235138 132.544418,324.583710 
	C135.511047,328.460785 137.050995,327.399628 139.134720,324.471008 
	C152.787964,305.281677 151.800903,286.763153 135.931381,268.637573 
	C127.065269,275.567749 124.159645,285.394440 122.353889,296.682343 
M270.609528,218.563019 
	C269.566864,207.385117 266.012146,197.413345 257.272949,189.764618 
	C240.912506,205.766113 240.231476,228.582870 254.495682,246.166519 
	C256.507477,248.646484 257.927032,248.702606 260.246857,245.855469 
	C266.585480,238.076035 269.595886,229.188538 270.609528,218.563019 
M367.796875,283.337708 
	C360.537170,302.064575 369.792175,322.182343 378.545898,326.935760 
	C383.017487,323.307922 385.846802,318.506775 387.851318,313.180878 
	C393.532928,298.085114 390.935883,284.235901 381.407776,271.479645 
	C379.177856,268.494202 376.975494,268.354034 374.802551,271.594574 
	C372.403412,275.172333 369.812897,278.631378 367.796875,283.337708 
z"/>
<path fill="#000000" opacity="1.000000" stroke="none" 
	d="
M513.000000,16.528801 
	C509.897522,20.449360 506.123688,21.637997 501.431671,21.451208 
	C492.946106,21.113401 484.435303,21.465097 475.940033,21.288616 
	C472.469055,21.216509 471.174347,22.437849 471.298553,25.924448 
	C471.500122,31.583157 471.540070,37.262741 471.286407,42.917290 
	C471.114136,46.758293 472.696899,47.995983 476.284790,47.683491 
	C478.434723,47.496243 480.615021,47.622463 482.780792,47.659744 
	C488.734009,47.762222 492.313385,51.629013 492.330872,57.941341 
	C492.348053,64.144981 488.640472,68.323845 482.858673,68.331657 
	C454.362579,68.370163 425.866241,68.387886 397.370361,68.300301 
	C393.609100,68.288742 390.931763,68.862778 388.871124,72.706467 
	C386.461304,77.201424 383.031433,81.219185 377.729584,83.801994 
	C381.499023,87.721001 386.088776,89.997009 390.083771,93.002716 
	C396.849213,98.092796 403.806976,102.927299 410.684540,107.868317 
	C414.541748,110.639404 416.592987,113.948074 416.468689,119.149567 
	C416.102570,134.472031 416.366394,149.809006 416.332642,165.140182 
	C416.317200,172.144669 412.985779,175.353287 405.921356,175.345169 
	C399.086914,175.337326 395.674988,171.921036 395.658417,164.961807 
	C395.630249,153.130127 395.560577,141.297302 395.700836,129.467239 
	C395.741760,126.014839 394.867462,123.651405 391.808105,121.571396 
	C382.645111,115.341568 373.745026,108.725067 364.574005,102.138634 
	C361.049042,105.794724 360.207214,110.302246 358.510742,114.317360 
	C355.627106,121.142326 352.701508,123.342140 345.320984,123.345390 
	C322.324066,123.355507 299.327179,123.357231 276.330261,123.337883 
	C269.302582,123.331970 266.068726,120.995560 263.590332,114.459221 
	C262.532532,111.669441 260.903137,109.045074 260.204773,106.181808 
	C259.027161,101.353508 256.763885,102.376602 253.903076,104.469070 
	C245.869751,110.344864 237.903412,116.320496 229.704086,121.956223 
	C227.138885,123.719398 226.290054,125.659050 226.310364,128.568542 
	C226.395233,140.732986 226.367706,152.898407 226.339157,165.063370 
	C226.322601,172.115646 223.041595,175.346481 216.015747,175.350418 
	C209.036026,175.354324 205.673096,172.067200 205.660629,165.093109 
	C205.633255,149.761887 205.874359,134.425552 205.528397,119.102104 
	C205.411819,113.938515 207.365234,110.589432 211.287231,107.830650 
	C221.052887,100.961380 230.801620,94.067940 240.533737,87.151260 
	C241.722305,86.306541 242.767731,85.260437 244.229904,84.007339 
	C238.567368,80.828102 234.900085,76.187729 232.041885,70.925926 
	C230.493835,68.076042 228.037231,68.366814 225.568405,68.365486 
	C197.072235,68.350212 168.575424,68.250359 140.080505,68.437462 
	C134.932480,68.471268 131.717560,66.125870 129.964066,61.949337 
	C127.990433,57.248451 130.184113,51.481770 134.223648,48.743935 
	C137.267761,46.680763 140.706375,47.812057 143.954712,47.710335 
	C150.620468,47.501598 150.631134,47.625027 150.648315,41.086765 
	C150.660568,36.420761 150.429794,31.740995 150.716980,27.092670 
	C150.981522,22.810894 149.588760,21.106342 145.087128,21.272623 
	C136.932678,21.573839 128.754761,21.197527 120.595238,21.419426 
	C115.772301,21.550587 111.565262,20.820070 109.232185,16.104174 
	C107.209282,12.015224 108.890617,5.476456 112.854538,1.315142 
	C144.354233,1.000000 175.708450,1.000000 207.771805,1.245573 
	C213.593292,5.180862 215.093262,9.004368 213.445114,14.145146 
	C211.665390,19.696346 209.099884,21.327843 202.050888,21.342928 
	C193.566971,21.361084 185.082962,21.379509 176.599136,21.353855 
	C174.198807,21.346598 172.303833,21.664427 172.342468,24.777998 
	C172.422958,31.264601 172.393372,37.753094 172.350296,44.240421 
	C172.335281,46.502823 173.269196,47.625359 175.598434,47.623550 
	C192.067093,47.610752 208.535843,47.605865 225.004410,47.651318 
	C227.906860,47.659325 228.708649,46.122665 228.661087,43.545151 
	C228.590469,39.720490 228.633820,35.893246 228.661987,32.067345 
	C228.724747,23.544155 231.803696,16.379938 237.699036,10.134587 
	C241.317825,6.300933 246.427719,4.736132 250.000000,1.000000 
	C290.020905,1.000000 330.041779,1.000000 370.780457,1.223181 
	C372.485352,2.054793 373.423370,2.768392 374.467163,3.255213 
	C383.761139,7.589888 389.725372,14.631157 392.455811,24.575010 
	C394.131348,30.677010 393.108978,36.819305 393.269073,42.934708 
	C393.355865,46.251095 394.184357,47.736301 397.798462,47.703724 
	C413.623840,47.561077 429.451416,47.585148 445.277527,47.674084 
	C448.515717,47.692284 449.756256,46.448971 449.678284,43.242413 
	C449.540558,37.581570 449.475769,31.907980 449.706848,26.253065 
	C449.855865,22.606346 448.663666,21.211241 444.883759,21.297659 
	C435.892517,21.503220 426.893005,21.337770 417.896851,21.346136 
	C413.160706,21.350540 410.174927,19.134518 408.578339,14.639874 
	C406.527374,8.866046 409.221985,4.796934 413.000000,1.000000 
	C446.333374,1.000000 479.666748,1.000000 513.000000,1.000000 
	C513.000000,6.095903 513.000000,11.076754 513.000000,16.528801 
M262.197968,66.642967 
	C294.485535,66.643448 326.773071,66.660034 359.060638,66.632584 
	C366.701141,66.626083 371.538879,61.866116 371.629028,54.290459 
	C371.710236,47.467762 371.524902,40.640339 371.692810,33.820801 
	C371.798706,29.519285 369.798492,26.574411 366.495758,24.268923 
	C363.086853,21.889345 359.123657,21.405216 355.138275,21.386801 
	C340.659119,21.319906 326.179474,21.362789 311.700012,21.364666 
	C296.554840,21.366629 281.406067,21.171135 266.265747,21.443331 
	C256.738892,21.614607 249.224075,25.066763 250.269287,37.358742 
	C250.732956,42.811607 250.323425,48.336681 250.356430,53.828697 
	C250.401947,61.403576 253.704483,65.215691 262.197968,66.642967 
M337.288025,88.358398 
	C317.564484,88.358398 297.840912,88.358398 277.880157,88.358398 
	C278.089600,92.789902 279.971588,95.961426 281.217865,99.318863 
	C281.995117,101.412689 283.773438,101.648453 285.711731,101.646507 
	C302.501160,101.629639 319.290588,101.634956 336.080017,101.645859 
	C337.795807,101.646973 339.598969,101.605042 340.383514,99.816711 
	C341.927979,96.296341 344.140778,92.938652 343.912445,88.361092 
	C341.824005,88.361092 340.017151,88.361092 337.288025,88.358398 
z"/>
<path fill="#000000" opacity="1.000000" stroke="none" 
	d="
M44.205627,169.333405 
	C36.902210,172.743042 30.410275,176.681412 24.865950,182.098892 
	C20.107969,186.748032 12.913383,187.010590 8.874024,182.842361 
	C4.481215,178.309387 4.459475,171.542221 9.228534,166.687134 
	C20.588530,155.122238 34.368130,147.566483 50.084423,144.023041 
	C71.170929,139.268829 91.647194,141.485748 110.977333,151.511810 
	C118.498375,155.412766 125.565933,160.056732 131.505249,166.257828 
	C136.224457,171.185028 136.849945,177.879272 132.782730,182.321701 
	C128.607925,186.881592 121.505875,187.064789 116.370827,182.312302 
	C110.204994,176.605835 103.369263,172.069321 95.651299,168.789108 
	C78.551529,161.521561 61.527821,161.543732 44.205627,169.333405 
z"/>
<path fill="#000000" opacity="1.000000" stroke="none" 
	d="
M35.519329,209.365631 
	C29.752943,200.974518 32.884327,194.483841 43.249962,188.059784 
	C62.365562,176.212982 85.327171,177.522552 103.042107,191.929214 
	C108.955650,196.738419 110.122490,204.224655 105.972290,209.095810 
	C101.684204,214.128769 94.948921,214.039902 88.787712,208.869080 
	C78.394066,200.146118 65.036415,199.768936 53.959728,207.885651 
	C45.673752,213.957397 41.918991,214.324112 35.519329,209.365631 
z"/>
<path fill="#000000" opacity="1.000000" stroke="none" 
	d="
M81.307281,229.845245 
	C79.412247,237.064148 76.736458,240.028824 71.194611,240.075699 
	C66.706047,240.113663 62.773308,238.260742 60.702469,233.818497 
	C58.627911,229.368225 59.663158,225.234375 62.709568,221.786804 
	C65.603958,218.511276 69.672188,217.914398 73.723137,219.057632 
	C78.796150,220.489304 81.242928,224.168884 81.307281,229.845245 
z"/>
<path fill="#000000" opacity="1.000000" stroke="none" 
	d="
M183.677994,317.816101 
	C184.259094,310.489319 187.125977,307.005890 193.088943,305.945129 
	C197.547974,305.151917 202.540497,307.946960 204.295380,312.219055 
	C206.742752,318.177032 203.953796,324.778351 198.135941,326.798157 
	C191.639084,329.053619 185.858688,325.629822 183.677994,317.816101 
z"/>
</svg>