<svg width="127" height="127" viewBox="0 0 127 127" fill="none" xmlns="http://www.w3.org/2000/svg">
<path d="M59.0644 41.792C55.5488 41.792 52.2749 42.4512 49.2427 43.7695C46.2104 45.0879 43.5298 46.8896 41.2007 49.1748C38.8716 51.46 37.0478 54.1626 35.7295 57.2827C34.4111 60.4028 33.7519 63.6768 33.7519 67.1045C33.7519 70.6201 34.4111 73.894 35.7295 76.9263C37.0478 79.9585 38.8496 82.6392 41.1348 84.9683C43.4199 87.2974 46.1006 89.1211 49.1767 90.4395C52.2529 91.7578 55.5488 92.417 59.0644 92.417C62.5361 92.417 65.81 91.7578 68.8862 90.4395C71.9624 89.1211 74.6431 87.3193 76.9282 85.0342C79.2134 82.749 81.0371 80.0684 82.3994 76.9922C83.7617 73.916 84.4209 70.6201 84.3769 67.1045C84.3769 64.292 83.8935 61.4795 82.9267 58.667H91.7598C92.1113 60.0732 92.375 61.4795 92.5508 62.8857C92.7265 64.292 92.8144 65.6982 92.8144 67.1045C92.8144 71.7627 91.9355 76.1353 90.1777 80.2222C88.4199 84.3091 86.0029 87.8687 82.9267 90.9009C79.8506 93.9331 76.269 96.3501 72.1821 98.1519C68.0952 99.9536 63.7226 100.854 59.0644 100.854C54.4062 100.854 50.0337 99.9756 45.9468 98.2178C41.8598 96.46 38.3003 94.043 35.2681 90.9668C32.2358 87.8906 29.8188 84.3091 28.0171 80.2222C26.2153 76.1353 25.3364 71.7627 25.3804 67.1045C25.3804 62.4463 26.2593 58.0737 28.0171 53.9868C29.7749 49.8999 32.1699 46.3403 35.2021 43.3081C38.2344 40.2759 41.8159 37.8589 45.9468 36.0571C50.0776 34.2554 54.4502 33.3545 59.0644 33.3545C60.4707 33.3545 61.8769 33.4424 63.2832 33.6182C64.6894 33.7939 66.0957 34.0576 67.5019 34.4092V43.2422C64.6894 42.2754 61.8769 41.792 59.0644 41.792ZM116.149 52.0093C117.468 56.9751 118.127 62.0068 118.127 67.1045C118.127 72.5098 117.424 77.7173 116.018 82.7271C114.611 87.7368 112.634 92.439 110.085 96.8335C107.536 101.228 104.438 105.227 100.791 108.831C97.1431 112.434 93.166 115.51 88.8594 118.059C84.5527 120.608 79.8506 122.607 74.7529 124.058C69.6553 125.508 64.4258 126.211 59.0644 126.167C53.6592 126.167 48.4516 125.464 43.4419 124.058C38.4321 122.651 33.73 120.674 29.3354 118.125C24.9409 115.576 20.9419 112.478 17.3384 108.831C13.7348 105.183 10.6587 101.206 8.10985 96.8994C5.56102 92.5928 3.56151 87.8906 2.11131 82.793C0.661118 77.6953 -0.0420065 72.4658 0.00193876 67.1045C0.00193876 61.6992 0.705064 56.4917 2.11131 51.4819C3.51756 46.4722 5.4951 41.77 8.04393 37.3755C10.5928 32.981 13.6909 28.9819 17.3384 25.3784C20.9858 21.7749 24.9629 18.6987 29.2695 16.1499C33.5762 13.6011 38.2783 11.6016 43.376 10.1514C48.4736 8.70117 53.7031 7.99805 59.0644 8.04199C64.1621 8.04199 69.1938 8.70117 74.1597 10.0195L67.5019 16.6772V17.2046C66.0957 16.9849 64.6894 16.8091 63.2832 16.6772C61.8769 16.5454 60.4707 16.4795 59.0644 16.4795C54.4062 16.4795 49.9238 17.0728 45.6172 18.2593C41.3105 19.4458 37.2895 21.1597 33.5542 23.4009C29.8188 25.6421 26.3911 28.2788 23.271 31.311C20.1509 34.3433 17.5141 37.749 15.3608 41.5283C13.2075 45.3076 11.5156 49.3506 10.2851 53.6572C9.05467 57.9639 8.43944 62.4463 8.43944 67.1045C8.43944 71.7627 9.0327 76.2451 10.2192 80.5518C11.4057 84.8584 13.1196 88.8794 15.3608 92.6147C17.602 96.3501 20.2388 99.7778 23.271 102.898C26.3032 106.018 29.709 108.655 33.4883 110.808C37.2676 112.961 41.3105 114.653 45.6172 115.884C49.9238 117.114 54.4062 117.729 59.0644 117.729C63.7226 117.729 68.2051 117.136 72.5117 115.95C76.8183 114.763 80.8393 113.049 84.5747 110.808C88.31 108.567 91.7378 105.93 94.8579 102.898C97.978 99.8657 100.615 96.46 102.768 92.6807C104.921 88.9014 106.613 84.8584 107.844 80.5518C109.074 76.2451 109.689 71.7627 109.689 67.1045C109.689 65.6982 109.624 64.292 109.492 62.8857C109.36 61.4795 109.184 60.0732 108.964 58.667H109.492L116.149 52.0093ZM75.9394 44.231V25.3125L101.252 0V24.917H126.169L100.856 50.2295H81.938L67.2383 64.9292C67.414 65.5884 67.5019 66.3135 67.5019 67.1045C67.5019 68.291 67.2822 69.3896 66.8428 70.4004C66.4033 71.4111 65.81 72.29 65.063 73.0371C64.3159 73.7842 63.415 74.3994 62.3603 74.8828C61.3056 75.3662 60.207 75.5859 59.0644 75.542C57.8779 75.542 56.7793 75.3223 55.7685 74.8828C54.7578 74.4434 53.8789 73.8501 53.1318 73.103C52.3848 72.356 51.7695 71.4551 51.2861 70.4004C50.8027 69.3457 50.583 68.2471 50.6269 67.1045C50.6269 65.918 50.8467 64.8193 51.2861 63.8086C51.7256 62.7979 52.3188 61.9189 53.0659 61.1719C53.813 60.4248 54.7139 59.8096 55.7685 59.3262C56.8232 58.8428 57.9219 58.623 59.0644 58.667C59.8555 58.667 60.5806 58.7549 61.2397 58.9307L75.9394 44.231ZM84.3769 41.792H97.3628L105.8 33.3545H92.8144V20.3687L84.3769 28.8062V41.792Z" fill="#949494" fill-opacity="0.8"/>
</svg>
