<svg xmlns="http://www.w3.org/2000/svg" xmlns:xlink="http://www.w3.org/1999/xlink" version="1.1" x="0px" y="0px" viewBox="0 0 100 125" enable-background="new 0 0 100 100" xml:space="preserve"><path fill-rule="evenodd" clip-rule="evenodd" d="M41.045,13.649c-1.747-0.548-4.563-0.546-6.219,0.002  c-1.35,0.447-1.641,1.083-1.647,1.537c-0.003,0.126,0.021,0.268,0.081,0.417c-0.055,0.139-0.08,0.271-0.081,0.392  c-0.007,0.449,0.263,1.086,1.584,1.568c0.92,0.335,2.13,0.52,3.411,0.52c1.282,0,2.465-0.186,3.332-0.524  c1.177-0.458,1.407-1.064,1.391-1.491c-0.004-0.115-0.028-0.241-0.081-0.373c0.062-0.156,0.085-0.304,0.081-0.434  C42.881,14.786,42.547,14.12,41.045,13.649z M41.132,15.792c-1.481,0.577-4.424,0.575-6.016-0.003  c-0.163-0.06-0.287-0.118-0.399-0.177c0.119-0.056,0.256-0.116,0.434-0.174c0.728-0.242,1.704-0.375,2.752-0.375  c1.052,0,2.058,0.134,2.834,0.377c0.263,0.082,0.462,0.166,0.622,0.247C41.287,15.721,41.224,15.756,41.132,15.792z"/><path fill-rule="evenodd" clip-rule="evenodd" d="M76.714,62.509c0.04-0.093,0.094-0.184,0.129-0.277  c0.45-1.2,0.39-2.456-0.129-3.66V38.843c0.075-0.148,0.16-0.296,0.214-0.45c0.359-0.98,0.27-2-0.214-2.972V18.646  c0.788-0.751,1.182-1.568,1.16-2.448c-0.082-3.154-5.496-5.02-10.022-6.03C62.687,9.015,56.053,8.381,49.17,8.381  c-6.887,0-13.369,0.636-18.253,1.791c-5.809,1.371-8.766,3.273-8.792,5.653c-0.009,0.875,0.384,1.691,1.174,2.447l-0.002,16.627  c-0.497,0.98-0.589,2.014-0.219,3.017c0.057,0.153,0.144,0.299,0.219,0.449V57.95c-0.538,1.216-0.595,2.498-0.125,3.732  c0.034,0.084,0.087,0.171,0.125,0.255l-0.001,13.624c-1.649,4.395,1.186,8.876,7.619,12.024c5.494,2.688,12.733,4.034,19.887,4.034  c7.166,0,14.248-1.349,19.401-4.045c5.681-2.976,8.043-7.059,6.51-11.231V62.509z M76.84,60.908  c-0.184,0.675-0.719,1.368-1.45,1.966c-0.25,0.208-0.529,0.404-0.822,0.593c-0.529,0.317-1.174,0.668-1.856,0.999  c-0.016,0.005-0.028,0.013-0.044,0.02c-0.097,0.043-0.205,0.08-0.304,0.12v0.021c-0.693,0.321-1.403,0.606-2.046,0.794  c-1.638,0.472-1.103,0.252-3.852,1.004c-0.437,0.1-0.877,0.193-1.333,0.249c-0.708,0.117-1.428,0.239-2.156,0.361  c-0.727,0.133-1.466,0.246-2.215,0.3c-1.499,0.131-3.017,0.327-4.542,0.408c-1.53,0.03-3.057,0.062-4.559,0.094  c-1.501-0.052-2.98-0.103-4.411-0.15c-1.432-0.012-2.804-0.257-4.109-0.375c-0.652-0.072-1.285-0.144-1.897-0.21  c-0.61-0.107-1.199-0.21-1.764-0.311c-1.132-0.194-2.162-0.397-3.072-0.575c-0.892-0.249-1.669-0.466-2.311-0.646  c-1.276-0.374-2.006-0.586-2.006-0.586s0.747,0.142,2.054,0.393c0.652,0.127,1.444,0.286,2.354,0.467  c0.918,0.105,1.952,0.223,3.073,0.376c0.562,0.071,1.145,0.148,1.75,0.223c0.61,0.04,1.242,0.081,1.891,0.122  c1.299,0.058,2.66,0.22,4.079,0.228c1.417,0.026,2.881,0.054,4.367,0.083c1.487-0.054,2.999-0.109,4.507-0.163  c1.508-0.06,3.009-0.229,4.491-0.334c0.745-0.044,1.472-0.141,2.19-0.263c0.72-0.109,1.429-0.217,2.127-0.325  c1.059-0.125,2.061-0.372,3.029-0.6l-0.56-20.336c1.581-0.413,3.083-0.859,4.48-1.344c0.319-0.111,0.612-0.229,0.918-0.344  l-0.462,20.804c0.02-0.008,0.045-0.014,0.066-0.021c1.042-0.413,1.972-0.862,2.711-1.38c0.737-0.515,1.277-1.118,1.494-1.721  c0.202-0.607,0.112-1.143-0.016-1.468c-0.127-0.329-0.226-0.494-0.226-0.494s0.113,0.152,0.279,0.472  C76.843,59.673,77.018,60.225,76.84,60.908z M40.172,62.437c3.093-4.863,6.22-9.98,9.349-15.353  c0.098-0.169,0.281-0.272,0.479-0.272s0.378,0.104,0.479,0.272c3.128,5.373,6.255,10.49,9.349,15.353  c0.099,0.154,0.099,0.362,0,0.55c-0.098,0.188-0.277,0.324-0.473,0.355c-6.195,1.02-12.515,1.019-18.711,0  c-0.193-0.033-0.375-0.167-0.471-0.355C40.074,62.799,40.074,62.591,40.172,62.437z M76.634,35.915  c-0.127-0.327-0.226-0.495-0.226-0.495s0.113,0.154,0.279,0.473c0.157,0.314,0.332,0.866,0.154,1.549  c-0.184,0.674-0.719,1.367-1.45,1.968c-0.68,0.563-1.535,1.064-2.499,1.504l-0.001,0.033c-0.532,0.208-1.076,0.415-1.644,0.614  c-1.212,0.418-2.504,0.81-3.862,1.175V42.73c-0.727,0.2-1.473,0.383-2.251,0.477c-0.708,0.12-1.428,0.241-2.156,0.363  c-0.727,0.134-1.466,0.247-2.215,0.3c-1.499,0.13-3.017,0.326-4.542,0.406c-1.528,0.032-3.057,0.064-4.559,0.096  c-1.501-0.052-2.98-0.103-4.411-0.152c-1.432-0.011-2.804-0.256-4.109-0.374c-0.652-0.073-1.285-0.143-1.897-0.21  c-0.61-0.107-1.199-0.211-1.764-0.31c-1.132-0.197-2.162-0.398-3.072-0.577c-0.892-0.25-1.669-0.466-2.311-0.646  c-1.276-0.373-2.006-0.586-2.006-0.586s0.747,0.143,2.054,0.392c0.652,0.13,1.444,0.287,2.354,0.469  c0.919,0.105,1.952,0.223,3.073,0.375c0.562,0.072,1.145,0.147,1.75,0.225c0.61,0.04,1.242,0.079,1.891,0.121  c1.299,0.058,2.66,0.219,4.079,0.226c1.417,0.028,2.881,0.055,4.368,0.083c1.486-0.053,2.998-0.109,4.506-0.163  c1.508-0.061,3.009-0.228,4.491-0.335c0.745-0.042,1.472-0.141,2.19-0.261c0.72-0.11,1.429-0.219,2.127-0.325  c0.83-0.098,1.618-0.272,2.388-0.451l-0.527-19.214c1.272-0.249,2.504-0.521,3.662-0.827c1.006-0.267,1.943-0.56,2.838-0.863  l-0.43,19.32c0.855-0.359,1.625-0.746,2.252-1.188c0.737-0.516,1.277-1.119,1.494-1.722C76.852,36.775,76.762,36.239,76.634,35.915z   M25.364,17.279c0,0-0.435-0.327-0.565-0.451c-0.125-0.12-0.347-0.392-0.444-0.537c-0.09-0.135-0.166-0.338-0.165-0.446  c0.007-0.731,1.533-2.328,7.201-3.667c4.733-1.119,11.047-1.734,17.78-1.734c6.734,0,13.21,0.618,18.231,1.737  c6.538,1.458,8.355,3.218,8.405,4.045c0,0-0.078,0.391-0.372,0.745c-0.184,0.224-0.785,0.694-0.785,0.694  c-0.907,0.601-2.394,1.265-4.658,1.894c-4.837,1.34-11.821,2.109-19.162,2.109c-7.348,0-14.533-0.771-19.714-2.114  C28.156,18.789,26.379,17.978,25.364,17.279z M76.588,78.923c-0.04,0.718-0.305,1.585-0.848,2.432  c-0.537,0.85-1.329,1.683-2.306,2.425c-0.49,0.377-1.034,0.741-1.61,1.089l-0.304,0.233c-0.49,0.296-1.01,0.581-1.574,0.815  c-0.943,0.395-1.949,0.791-2.985,1.185c-0.327,0.109-0.654,0.215-0.986,0.33c-0.726,0.224-1.477,0.407-2.232,0.616  c-0.758,0.191-1.536,0.332-2.315,0.503c-1.566,0.292-3.169,0.529-4.78,0.691c-1.613,0.134-3.229,0.221-4.818,0.224  c-0.796,0.022-1.585,0.003-2.364-0.023c-0.779-0.017-1.548-0.041-2.303-0.104c-1.515-0.073-2.966-0.28-4.341-0.463  c-1.368-0.231-2.661-0.443-3.838-0.729c-1.19-0.229-2.246-0.586-3.189-0.849c-0.934-0.311-1.74-0.604-2.403-0.839  c-1.286-0.563-2.021-0.887-2.021-0.887s0.762,0.254,2.095,0.7c0.674,0.181,1.492,0.402,2.432,0.657  c0.958,0.187,2.019,0.466,3.202,0.649c1.174,0.23,2.461,0.386,3.819,0.552c1.367,0.123,2.804,0.249,4.296,0.315  c0.744,0.051,1.503,0.066,2.271,0.069c0.768,0.015,1.545,0.022,2.329-0.011c1.566-0.024,3.155-0.133,4.737-0.288  c1.584-0.136,3.161-0.344,4.702-0.609c0.765-0.155,1.53-0.284,2.275-0.46c0.74-0.196,1.479-0.361,2.19-0.57  c0.708-0.228,1.402-0.452,2.081-0.669c0.256-0.101,0.514-0.197,0.768-0.294l-0.48-17.452c1.399-0.38,2.736-0.79,3.989-1.227  c0.083-0.03,0.158-0.062,0.241-0.091l-0.382,17.203c0.403-0.234,0.792-0.475,1.159-0.728c0.96-0.683,1.768-1.412,2.333-2.178  c0.571-0.762,0.875-1.553,0.964-2.232c0.103-0.685-0.014-1.229-0.09-1.593c-0.114-0.357-0.177-0.547-0.177-0.547  s0.082,0.183,0.231,0.53C76.46,77.653,76.651,78.201,76.588,78.923z"/><path fill-rule="evenodd" clip-rule="evenodd" d="M54.023,61.4c0.65-0.96,0.853-2.01,0.411-3.118  c-1.113-2.79-2.886-5.178-4.683-7.75c-1.698,2.73-3.592,5.217-4.359,8.26c-0.194,0.771,0.092,1.856,0.533,2.562  C47.665,64.133,52.184,64.114,54.023,61.4z M47.583,57.587c-0.342,1.5-0.009,2.753,1.134,3.729  c-1.068,0.956-1.352,0.963-1.975-0.259c-0.341-0.665-0.483-1.475-0.539-2.232C46.144,58.031,46.569,57.507,47.583,57.587z"/><text x="0" y="115" fill="#000000" font-size="5px" font-weight="bold" font-family="'Helvetica Neue', Helvetica, Arial-Unicode, Arial, Sans-serif">Created by nopixel</text><text x="0" y="120" fill="#000000" font-size="5px" font-weight="bold" font-family="'Helvetica Neue', Helvetica, Arial-Unicode, Arial, Sans-serif">from the Noun Project</text></svg>