<svg width="131" height="89" viewBox="0 0 131 89" fill="none" xmlns="http://www.w3.org/2000/svg">
<path d="M65.5 26.875C60.8256 26.875 56.3426 28.7319 53.0372 32.0372C49.7319 35.3426 47.875 39.8256 47.875 44.5C47.875 49.1744 49.7319 53.6574 53.0372 56.9628C56.3426 60.2681 60.8256 62.125 65.5 62.125C70.1744 62.125 74.6574 60.2681 77.9628 56.9628C81.2681 53.6574 83.125 49.1744 83.125 44.5C83.125 39.8256 81.2681 35.3426 77.9628 32.0372C74.6574 28.7319 70.1744 26.875 65.5 26.875ZM65.5 73.875C57.7093 73.875 50.2376 70.7801 44.7287 65.2713C39.2199 59.7624 36.125 52.2907 36.125 44.5C36.125 36.7093 39.2199 29.2376 44.7287 23.7287C50.2376 18.2199 57.7093 15.125 65.5 15.125C73.2907 15.125 80.7624 18.2199 86.2713 23.7287C91.7801 29.2376 94.875 36.7093 94.875 44.5C94.875 52.2907 91.7801 59.7624 86.2713 65.2713C80.7624 70.7801 73.2907 73.875 65.5 73.875ZM65.5 0.4375C36.125 0.4375 11.0388 18.7088 0.875 44.5C11.0388 70.2912 36.125 88.5625 65.5 88.5625C94.875 88.5625 119.961 70.2912 130.125 44.5C119.961 18.7088 94.875 0.4375 65.5 0.4375Z" fill="#787878"/>
</svg>
