<svg version="1.1" id="Layer_1" xmlns="http://www.w3.org/2000/svg" xmlns:xlink="http://www.w3.org/1999/xlink" x="0px" y="0px"
	 width="100%" viewBox="0 0 512 512" enable-background="new 0 0 512 512" xml:space="preserve">
<path fill="#000000" opacity="1.000000" stroke="none" 
	d="
M1.000000,73.000000 
	C1.000000,59.312439 1.000000,45.624878 1.354830,31.368511 
	C3.811164,26.375626 7.785634,25.994356 11.975451,25.994619 
	C120.106094,26.001429 228.236725,26.000000 336.367371,26.000000 
	C338.144318,26.000000 339.921265,26.000000 342.000000,26.000000 
	C342.000000,20.724644 342.295441,15.902215 341.915375,11.133627 
	C341.548431,6.529919 343.363251,3.402924 347.000000,1.000000 
	C377.687561,1.000000 408.375122,1.000000 439.629272,1.352772 
	C443.762207,3.019332 445.032227,5.751282 445.009125,9.351094 
	C444.974182,14.792976 444.999969,20.235250 444.999969,26.000000 
	C464.561890,26.000000 483.667847,26.059092 502.772858,25.955484 
	C507.157593,25.931705 510.412537,27.653072 513.000000,31.000000 
	C513.000000,44.687561 513.000000,58.375122 512.647217,72.629272 
	C510.978973,76.766884 508.241821,78.020836 504.639496,78.009949 
	C494.975616,77.980743 485.311554,78.000000 475.647583,78.000000 
	C465.535828,78.000000 455.424103,78.000000 445.000000,78.000000 
	C445.000000,81.089424 445.026367,83.720123 444.994568,86.350121 
	C444.924835,92.118828 442.047241,94.955780 436.188721,94.992935 
	C430.906036,95.026436 425.622986,95.000000 420.359497,95.000000 
	C420.359497,228.606476 420.359497,361.771423 420.359497,494.837402 
	C424.647003,494.837402 428.574341,494.837402 432.612457,494.837402 
	C423.311493,482.022827 425.307373,461.772278 444.998352,453.860046 
	C444.998352,448.769257 444.404358,443.800110 445.124359,439.029297 
	C446.540741,429.644562 452.426117,423.035736 461.166138,420.205139 
	C470.272858,417.255737 479.438538,418.117493 487.265656,424.752594 
	C495.716492,431.916351 496.960358,441.330048 495.873657,451.547974 
	C495.763336,452.585114 495.953308,454.508545 496.378662,454.622559 
	C505.484344,457.063171 509.374878,464.389130 513.000000,472.000000 
	C513.000000,485.656158 513.000000,499.312286 513.000000,512.965820 
	C342.333344,512.963135 171.666656,512.963135 1.000000,512.963135 
	C1.000000,507.264038 1.000000,501.601715 1.415106,495.469727 
	C5.012852,495.468231 7.330151,494.335785 9.644004,491.966187 
	C20.936918,480.401154 32.801743,469.374664 43.741138,457.491943 
	C50.222050,450.452148 56.207954,452.562866 61.213158,457.656433 
	C71.375313,467.997925 82.114334,477.809296 91.776558,488.591064 
	C97.286102,494.738892 103.223076,496.065552 111.001663,494.528870 
	C111.001663,366.869843 111.001663,239.131592 111.001663,111.203667 
	C117.137695,111.203667 122.876053,111.203667 129.014954,111.203667 
	C129.014954,122.809555 129.014954,134.220764 129.014954,146.022522 
	C166.152924,146.022522 202.892776,146.022522 239.784454,146.022522 
	C239.784454,152.162430 239.784454,157.900848 239.784454,164.038055 
	C202.831696,164.038055 166.091858,164.038055 129.223389,164.038055 
	C129.223389,172.178085 129.223389,179.916504 129.223389,187.776489 
	C146.191132,187.776489 162.934814,187.776489 180.060608,187.776489 
	C180.060608,185.148865 180.060608,182.738312 180.060608,180.226440 
	C186.192902,180.226440 191.940002,180.226440 198.067413,180.226440 
	C198.067413,182.857285 198.067413,185.267761 198.067413,187.766510 
	C214.859344,187.766510 231.267303,187.766510 248.074539,187.766510 
	C248.074539,182.130722 248.074539,176.713974 248.074539,171.241669 
	C254.216934,171.241669 259.956024,171.241669 266.091217,171.241669 
	C266.091217,176.886734 266.091217,182.303467 266.091217,187.750031 
	C282.898163,187.750031 299.303284,187.750031 316.107208,187.750031 
	C316.107208,176.428802 316.107208,165.351395 316.107208,154.258270 
	C322.250641,154.258270 327.989746,154.258270 334.121521,154.258270 
	C334.121521,267.919830 334.121521,381.323761 334.121521,494.735840 
	C345.261047,494.735840 355.999969,494.735840 366.734680,494.735840 
	C366.734680,361.401733 366.734680,228.331970 366.734680,94.999969 
	C361.000397,94.999969 355.526428,95.067963 350.054993,94.979790 
	C345.120483,94.900291 342.162964,91.963264 342.016327,87.089378 
	C341.927856,84.149399 342.000031,81.204582 342.000031,78.257812 
	C245.419342,78.257812 149.348404,78.257812 53.199284,78.257812 
	C53.199284,129.932114 53.199284,181.348389 53.199284,232.689529 
	C67.981697,238.238602 74.867256,256.851868 65.281670,271.528259 
	C64.463188,272.781433 64.766289,275.678436 65.697243,277.006317 
	C69.885765,282.980499 74.787071,288.463959 78.847153,294.516266 
	C82.010941,299.232513 85.999390,304.321686 86.640038,309.606567 
	C87.874504,319.790009 87.334373,330.246124 86.810799,340.552612 
	C86.637581,343.962372 84.919273,347.800018 82.735352,350.490753 
	C78.766846,355.380188 73.918861,359.555450 69.441261,364.032135 
	C66.683716,366.789124 63.638042,368.233185 59.459713,368.105713 
	C48.969707,367.785736 38.460258,367.852112 27.965258,368.075745 
	C23.995569,368.160339 21.158291,366.805511 18.447598,364.024933 
	C12.777066,358.208252 6.832195,352.659058 1.000002,347.000000 
	C1.000000,332.979095 1.000000,318.958221 1.342468,304.380951 
	C8.327596,294.857727 15.069691,285.960999 21.499029,276.843689 
	C22.398830,275.567749 22.433121,272.882080 21.714590,271.413208 
	C19.506672,266.899658 17.065514,262.582123 18.331961,257.144592 
	C24.112890,257.144592 29.743494,257.144592 35.375790,257.149170 
	C35.555130,257.386261 35.841938,257.596649 35.894234,257.854553 
	C36.825676,262.447937 39.444939,265.174957 44.297970,264.952484 
	C47.748981,264.794189 51.827877,260.412933 51.954254,257.150421 
	C52.099792,253.393433 48.139519,249.746964 43.101486,248.999146 
	C37.918762,248.229828 35.002903,244.845062 35.002483,239.542770 
	C34.998367,187.569290 35.000000,135.595810 35.000000,83.622337 
	C35.000000,81.846642 35.000000,80.070938 35.000000,78.000000 
	C26.717682,78.000000 18.908947,77.737396 11.129281,78.099434 
	C6.531808,78.313370 3.402503,76.635674 1.000000,73.000000 
M301.495300,309.000000 
	C287.833679,309.000000 274.171997,308.970428 260.510529,309.015961 
	C255.698151,309.032013 251.765854,307.423401 248.347427,303.914520 
	C239.862228,295.204834 231.115814,286.749756 222.623398,278.046967 
	C220.515457,275.886810 218.476639,274.809174 215.338745,274.913971 
	C207.517044,275.175201 199.680771,275.000275 191.850357,274.999939 
	C182.641388,274.999542 180.000015,272.388702 180.000000,263.287445 
	C179.999969,254.875641 180.000000,246.463821 180.000000,238.358521 
	C162.540787,238.358521 145.804047,238.358521 129.329178,238.358521 
	C129.329178,324.100250 129.329178,409.483307 129.329178,494.690948 
	C191.714539,494.690948 253.770355,494.690948 315.710938,494.690948 
	C315.710938,432.659058 315.710938,370.936615 315.710938,309.000000 
	C311.113159,309.000000 306.802643,309.000000 301.495300,309.000000 
M273.560547,206.000000 
	C271.123108,206.000000 268.685699,206.000000 266.267914,206.000000 
	C266.267914,234.604919 266.267914,262.674500 266.267914,290.729858 
	C282.941467,290.729858 299.345642,290.729858 315.729187,290.729858 
	C315.729187,262.389282 315.729187,234.319656 315.729187,206.000000 
	C301.821106,206.000000 288.182587,206.000000 273.560547,206.000000 
M242.400238,206.000000 
	C227.649750,206.000000 212.899261,206.000000 198.314911,206.000000 
	C198.314911,223.372147 198.314911,240.107178 198.314911,257.000000 
	C206.944443,257.000000 215.261230,256.928101 223.574493,257.066864 
	C225.056396,257.091583 226.864075,257.603241 227.939758,258.550507 
	C233.015671,263.020386 237.899460,267.709167 242.829163,272.343903 
	C244.411621,273.831726 245.924820,275.393219 247.848160,277.295258 
	C247.848160,253.067139 247.848160,229.778427 247.848160,206.000000 
	C246.261612,206.000000 244.819473,206.000000 242.400238,206.000000 
M19.000370,336.855011 
	C19.098951,337.488495 18.968475,338.335449 19.330269,338.723602 
	C25.350595,345.182617 30.781179,352.516083 41.573158,350.134094 
	C45.375660,349.294830 49.519047,350.003571 53.506783,349.998901 
	C57.068939,349.994751 68.677124,341.282043 68.875252,337.772400 
	C69.263428,330.896088 68.989319,323.982422 68.989319,317.295044 
	C51.939335,317.295044 35.568367,317.295044 19.000023,317.295044 
	C19.000023,323.716461 19.000023,329.844757 19.000370,336.855011 
M411.000000,23.622839 
	C411.000000,35.453621 411.003204,47.284401 410.998871,59.115181 
	C410.996185,66.460411 407.635101,69.942467 400.341705,69.986359 
	C391.010712,70.042519 381.679138,69.999992 372.347809,70.000000 
	C368.250885,70.000000 364.153992,70.000000 360.149139,70.000000 
	C360.149139,72.616432 360.149139,74.578491 360.149139,76.664215 
	C382.493164,76.664215 404.686676,76.664215 426.664673,76.664215 
	C426.664673,57.256195 426.664673,38.185139 426.664673,19.000101 
	C422.339203,19.000101 418.333282,19.214178 414.362793,18.931208 
	C411.281158,18.711586 410.607727,20.044983 411.000000,23.622839 
M380.489166,19.000000 
	C373.725250,19.000000 366.961334,19.000000 360.290863,19.000000 
	C360.290863,30.320322 360.290863,41.057499 360.290863,51.708626 
	C371.321381,51.708626 382.058533,51.708626 392.708130,51.708626 
	C392.708130,40.677582 392.708130,29.940388 392.708130,19.000000 
	C388.774017,19.000000 385.128510,19.000000 380.489166,19.000000 
M146.501251,220.000000 
	C157.597122,220.000000 168.692993,220.000000 179.712830,220.000000 
	C179.712830,215.020462 179.712830,210.614670 179.712830,206.284241 
	C162.688293,206.284241 145.952454,206.284241 129.287216,206.284241 
	C129.287216,210.979614 129.287216,215.385406 129.287216,220.000000 
	C134.882431,220.000000 140.192123,220.000000 146.501251,220.000000 
M32.294933,494.245239 
	C45.372269,494.245239 58.449604,494.245239 69.894539,494.245239 
	C64.298561,488.654297 57.718689,482.080322 51.144608,475.512177 
	C45.343491,481.283875 39.099991,487.495758 32.294933,494.245239 
M385.052979,414.386353 
	C389.784576,407.672211 394.526123,400.965027 399.217926,394.223206 
	C399.450317,393.889313 399.448883,393.121002 399.220764,392.778442 
	C394.661438,385.932770 390.052765,379.119965 385.002899,371.631531 
	C385.002899,386.241486 385.002899,399.905029 385.052979,414.386353 
M395.032745,149.372787 
	C397.206970,152.446304 399.381165,155.519821 401.825500,158.975204 
	C401.825500,144.486710 401.825500,130.500412 401.825500,115.930756 
	C397.382416,122.448502 393.102509,128.387161 389.272644,134.603104 
	C388.402344,136.015640 388.437225,138.714127 389.201447,140.250793 
	C390.696320,143.256653 392.998932,145.860840 395.032745,149.372787 
M388.964600,274.611328 
	C387.850098,273.148224 386.735565,271.685120 385.373230,269.896667 
	C385.373230,284.211792 385.373230,297.910278 385.373230,312.424744 
	C389.959229,305.564575 394.143707,299.504578 398.052277,293.271515 
	C398.742493,292.170807 398.891632,289.971710 398.245911,288.923248 
	C395.382172,284.273132 392.137787,279.857452 388.964600,274.611328 
M398.035645,223.613907 
	C395.180756,228.079346 392.171631,232.457535 389.566101,237.064011 
	C388.796661,238.424316 388.418091,240.890762 389.139801,242.061920 
	C393.044678,248.398895 397.351196,254.488419 401.745270,260.997955 
	C401.745270,246.787674 401.745270,233.120361 401.745270,218.669601 
	C400.348969,220.531921 399.419830,221.771164 398.035645,223.613907 
M396.037476,193.584198 
	C396.917633,191.459396 399.153778,188.543701 398.452454,187.341339 
	C394.608948,180.751801 390.045166,174.582382 385.375061,167.751312 
	C385.375061,182.172455 385.375061,195.866531 385.375061,209.767776 
	C389.052582,204.410675 392.511475,199.372040 396.037476,193.584198 
M401.154572,465.579559 
	C401.436371,464.299164 401.955597,463.020111 401.962860,461.738159 
	C402.026917,450.420105 402.009247,439.101471 401.985992,427.783112 
	C401.983612,426.628448 401.785858,425.474213 401.600037,423.470978 
	C397.185303,430.213898 393.160919,436.039825 389.552155,442.112732 
	C388.717224,443.517700 388.552948,446.226105 389.363312,447.548187 
	C392.984558,453.456024 397.070282,459.079163 401.154572,465.579559 
M402.000000,324.101990 
	C402.000000,323.225739 402.000000,322.349457 402.000000,320.425476 
	C397.682709,326.990631 394.240143,332.749817 390.243500,338.094696 
	C388.057617,341.018005 387.723541,343.131561 389.946259,346.145416 
	C393.940521,351.561249 397.551880,357.259460 402.000000,363.841064 
	C402.000000,349.923676 402.000000,337.454254 402.000000,324.101990 
M54.970127,292.645355 
	C53.217342,290.494080 51.428097,288.371307 49.719410,286.185547 
	C46.209591,281.695801 40.611851,281.698669 37.309601,286.250549 
	C34.319527,290.372070 31.359608,294.515472 28.309650,298.755920 
	C38.546654,298.755920 48.539536,298.755920 59.263481,298.755920 
	C57.586796,296.624847 56.310474,295.002625 54.970127,292.645355 
M275.641815,53.968597 
	C277.147552,54.866783 278.609406,55.852993 280.174194,56.632626 
	C281.241516,57.164398 282.890930,58.087662 283.531708,57.674683 
	C290.038818,53.480976 296.391846,49.048256 303.212463,44.392845 
	C289.109894,44.392845 275.744568,44.392845 261.723785,44.392845 
	C266.582764,47.731403 270.806274,50.633347 275.641815,53.968597 
M193.026428,49.469467 
	C195.586365,47.808792 198.146286,46.148117 200.940521,44.335449 
	C187.068665,44.335449 173.738144,44.335449 159.504120,44.335449 
	C163.341766,46.887318 166.399765,48.910454 169.446960,50.949722 
	C172.928726,53.279835 176.377686,57.412422 179.883835,57.457996 
	C183.367523,57.503281 186.900986,53.439163 190.421310,51.190720 
	C191.093842,50.761166 191.806747,50.394802 193.026428,49.469467 
M73.387535,55.034286 
	C75.303520,55.812275 77.936874,57.806206 79.017693,57.168564 
	C85.457405,53.369385 91.538513,48.962353 98.322922,44.364357 
	C84.166725,44.364357 70.805313,44.364357 57.220215,44.364357 
	C62.577480,48.047539 67.610626,51.507881 73.387535,55.034286 
M128.626236,46.037872 
	C122.142509,50.480320 115.658775,54.922771 108.629784,59.738815 
	C122.578690,59.738815 135.565323,59.738815 149.422638,59.738815 
	C142.260925,54.845737 135.815140,50.441795 128.626236,46.037872 
M244.504501,55.003216 
	C240.725922,52.552406 237.013275,49.988235 233.124664,47.726616 
	C232.089691,47.124680 230.143478,46.870308 229.248459,47.443863 
	C223.215668,51.309891 217.353195,55.441723 211.241943,59.619865 
	C224.541779,59.619865 237.576630,59.619865 251.626694,59.619865 
	C248.824554,57.884624 246.927017,56.709557 244.504501,55.003216 
M322.618103,60.000000 
	C329.042206,60.000000 335.466309,60.000000 341.708862,60.000000 
	C341.708862,54.247520 341.708862,49.159321 341.708862,43.282963 
	C330.455780,45.789322 323.488678,54.454700 314.448273,60.000000 
	C316.853394,60.000000 319.258545,60.000000 322.618103,60.000000 
M19.001793,45.852699 
	C19.001793,50.460117 19.001793,55.067535 19.001793,59.799782 
	C28.467970,59.799782 37.481552,59.799782 47.030678,59.799782 
	C39.593815,54.734364 32.726254,49.803429 25.554630,45.363651 
	C23.917950,44.350422 21.231199,45.033379 19.001793,45.852699 
M445.512817,480.008026 
	C446.294891,484.591461 449.728424,486.832672 453.655945,486.767059 
	C457.117645,486.709259 460.248230,484.204437 460.931335,480.324371 
	C461.666077,476.151215 459.772308,472.992523 455.863495,471.378540 
	C451.094666,469.409485 447.757599,471.964355 445.512817,480.008026 
M480.832001,474.733185 
	C480.601624,476.953766 479.851196,479.273865 480.252808,481.373535 
	C481.010132,485.332489 485.713135,487.662628 489.197174,486.364563 
	C492.631317,485.085083 495.117737,483.238922 495.038635,479.066803 
	C494.968384,475.361908 493.285889,472.897491 489.987244,471.479919 
	C486.408508,469.941986 483.621368,471.235229 480.832001,474.733185 
M470.472565,452.953705 
	C471.201294,452.633759 471.904968,452.227264 472.662781,452.007843 
	C477.857971,450.503845 478.845947,445.168488 477.598694,442.059265 
	C476.034058,438.158722 471.032867,435.690369 467.534851,437.144012 
	C463.618927,438.771301 461.328888,444.191650 463.628662,447.925323 
	C464.934570,450.045349 467.625183,451.312347 470.472565,452.953705 
M462.736176,44.000156 
	C456.852692,44.000156 450.969208,44.000156 445.095062,44.000156 
	C445.095062,48.930656 445.095062,53.190701 445.095062,57.809612 
	C451.443298,53.699741 457.572571,49.753262 463.645508,45.721951 
	C463.891785,45.558449 463.606445,44.594082 462.736176,44.000156 
M396.010101,490.514923 
	C392.593567,485.407928 389.177032,480.300934 385.352020,474.583344 
	C385.352020,481.985260 385.352020,488.461517 385.352020,494.871674 
	C389.960938,494.871674 394.217133,494.871674 398.724365,494.871674 
	C397.924225,493.461914 397.238129,492.253082 396.010101,490.514923 
M494.999695,57.374126 
	C494.999695,54.091652 494.999695,50.809177 494.999695,46.766571 
	C488.422607,51.111149 482.300262,55.155323 474.968445,59.998440 
	C481.898895,59.998440 487.297089,60.065475 492.689758,59.924011 
	C493.471802,59.903492 494.227661,58.884003 494.999695,57.374126 
M385.000214,104.772682 
	C385.136841,105.418289 385.273499,106.063896 385.534698,107.297958 
	C388.346283,102.995827 390.747711,99.321274 393.388733,95.280151 
	C390.236542,95.280151 387.725616,95.280151 385.000000,95.280151 
	C385.000000,98.345123 385.000000,101.132027 385.000214,104.772682 
z"/>
<path fill="#FFFFFF" opacity="1.000000" stroke="none" 
	d="
M1.000002,347.468658 
	C6.832195,352.659058 12.777066,358.208252 18.447598,364.024933 
	C21.158291,366.805511 23.995569,368.160339 27.965258,368.075745 
	C38.460258,367.852112 48.969707,367.785736 59.459713,368.105713 
	C63.638042,368.233185 66.683716,366.789124 69.441261,364.032135 
	C73.918861,359.555450 78.766846,355.380188 82.735352,350.490753 
	C84.919273,347.800018 86.637581,343.962372 86.810799,340.552612 
	C87.334373,330.246124 87.874504,319.790009 86.640038,309.606567 
	C85.999390,304.321686 82.010941,299.232513 78.847153,294.516266 
	C74.787071,288.463959 69.885765,282.980499 65.697243,277.006317 
	C64.766289,275.678436 64.463188,272.781433 65.281670,271.528259 
	C74.867256,256.851868 67.981697,238.238602 53.199284,232.689529 
	C53.199284,181.348389 53.199284,129.932114 53.199284,78.257812 
	C149.348404,78.257812 245.419342,78.257812 342.000031,78.257812 
	C342.000031,81.204582 341.927856,84.149399 342.016327,87.089378 
	C342.162964,91.963264 345.120483,94.900291 350.054993,94.979790 
	C355.526428,95.067963 361.000397,94.999969 366.734680,94.999969 
	C366.734680,228.331970 366.734680,361.401733 366.734680,494.735840 
	C355.999969,494.735840 345.261047,494.735840 334.121521,494.735840 
	C334.121521,381.323761 334.121521,267.919830 334.121521,154.258270 
	C327.989746,154.258270 322.250641,154.258270 316.107208,154.258270 
	C316.107208,165.351395 316.107208,176.428802 316.107208,187.750031 
	C299.303284,187.750031 282.898163,187.750031 266.091217,187.750031 
	C266.091217,182.303467 266.091217,176.886734 266.091217,171.241669 
	C259.956024,171.241669 254.216934,171.241669 248.074539,171.241669 
	C248.074539,176.713974 248.074539,182.130722 248.074539,187.766510 
	C231.267303,187.766510 214.859344,187.766510 198.067413,187.766510 
	C198.067413,185.267761 198.067413,182.857285 198.067413,180.226440 
	C191.940002,180.226440 186.192902,180.226440 180.060608,180.226440 
	C180.060608,182.738312 180.060608,185.148865 180.060608,187.776489 
	C162.934814,187.776489 146.191132,187.776489 129.223389,187.776489 
	C129.223389,179.916504 129.223389,172.178085 129.223389,164.038055 
	C166.091858,164.038055 202.831696,164.038055 239.784454,164.038055 
	C239.784454,157.900848 239.784454,152.162430 239.784454,146.022522 
	C202.892776,146.022522 166.152924,146.022522 129.014954,146.022522 
	C129.014954,134.220764 129.014954,122.809555 129.014954,111.203667 
	C122.876053,111.203667 117.137695,111.203667 111.001663,111.203667 
	C111.001663,239.131592 111.001663,366.869843 111.001663,494.528870 
	C103.223076,496.065552 97.286102,494.738892 91.776558,488.591064 
	C82.114334,477.809296 71.375313,467.997925 61.213158,457.656433 
	C56.207954,452.562866 50.222050,450.452148 43.741138,457.491943 
	C32.801743,469.374664 20.936918,480.401154 9.644004,491.966187 
	C7.330151,494.335785 5.012852,495.468231 1.415106,495.000000 
	C1.000000,445.979095 1.000000,396.958221 1.000002,347.468658 
z"/>
<path fill="#FFFFFF" opacity="1.000000" stroke="none" 
	d="
M513.000000,471.531342 
	C509.374878,464.389130 505.484344,457.063171 496.378662,454.622559 
	C495.953308,454.508545 495.763336,452.585114 495.873657,451.547974 
	C496.960358,441.330048 495.716492,431.916351 487.265656,424.752594 
	C479.438538,418.117493 470.272858,417.255737 461.166138,420.205139 
	C452.426117,423.035736 446.540741,429.644562 445.124359,439.029297 
	C444.404358,443.800110 444.998352,448.769257 444.998352,453.860046 
	C425.307373,461.772278 423.311493,482.022827 432.612457,494.837402 
	C428.574341,494.837402 424.647003,494.837402 420.359497,494.837402 
	C420.359497,361.771423 420.359497,228.606476 420.359497,95.000000 
	C425.622986,95.000000 430.906036,95.026436 436.188721,94.992935 
	C442.047241,94.955780 444.924835,92.118828 444.994568,86.350121 
	C445.026367,83.720123 445.000000,81.089424 445.000000,78.000000 
	C455.424103,78.000000 465.535828,78.000000 475.647583,78.000000 
	C485.311554,78.000000 494.975616,77.980743 504.639496,78.009949 
	C508.241821,78.020836 510.978973,76.766884 512.647217,73.097931 
	C513.000000,205.687561 513.000000,338.375122 513.000000,471.531342 
z"/>
<path fill="#FFFFFF" opacity="1.000000" stroke="none" 
	d="
M346.531342,1.000000 
	C343.363251,3.402924 341.548431,6.529919 341.915375,11.133627 
	C342.295441,15.902215 342.000000,20.724644 342.000000,26.000000 
	C339.921265,26.000000 338.144318,26.000000 336.367371,26.000000 
	C228.236725,26.000000 120.106094,26.001429 11.975451,25.994619 
	C7.785634,25.994356 3.811164,26.375626 1.354830,30.899853 
	C1.000000,21.011646 1.000000,11.023293 1.000000,1.000000 
	C116.020889,1.000000 231.041794,1.000000 346.531342,1.000000 
z"/>
<path fill="#FFFFFF" opacity="1.000000" stroke="none" 
	d="
M1.000000,73.468658 
	C3.402503,76.635674 6.531808,78.313370 11.129281,78.099434 
	C18.908947,77.737396 26.717682,78.000000 35.000000,78.000000 
	C35.000000,80.070938 35.000000,81.846642 35.000000,83.622337 
	C35.000000,135.595810 34.998367,187.569290 35.002483,239.542770 
	C35.002903,244.845062 37.918762,248.229828 43.101486,248.999146 
	C48.139519,249.746964 52.099792,253.393433 51.954254,257.150421 
	C51.827877,260.412933 47.748981,264.794189 44.297970,264.952484 
	C39.444939,265.174957 36.825676,262.447937 35.894234,257.854553 
	C35.841938,257.596649 35.555130,257.386261 35.375790,257.149170 
	C29.743494,257.144592 24.112890,257.144592 18.331961,257.144592 
	C17.065514,262.582123 19.506672,266.899658 21.714590,271.413208 
	C22.433121,272.882080 22.398830,275.567749 21.499029,276.843689 
	C15.069691,285.960999 8.327596,294.857727 1.342468,303.912292 
	C1.000000,227.312439 1.000000,150.624878 1.000000,73.468658 
z"/>
<path fill="#FFFFFF" opacity="1.000000" stroke="none" 
	d="
M513.000000,30.531342 
	C510.412537,27.653072 507.157593,25.931705 502.772858,25.955484 
	C483.667847,26.059092 464.561890,26.000000 444.999969,26.000000 
	C444.999969,20.235250 444.974182,14.792976 445.009125,9.351094 
	C445.032227,5.751282 443.762207,3.019332 440.097931,1.352772 
	C464.229523,1.000000 488.459015,1.000000 513.000000,1.000000 
	C513.000000,10.685336 513.000000,20.374010 513.000000,30.531342 
z"/>
<path fill="#FFFFFF" opacity="1.000000" stroke="none" 
	d="
M301.993713,309.000000 
	C306.802643,309.000000 311.113159,309.000000 315.710938,309.000000 
	C315.710938,370.936615 315.710938,432.659058 315.710938,494.690948 
	C253.770355,494.690948 191.714539,494.690948 129.329178,494.690948 
	C129.329178,409.483307 129.329178,324.100250 129.329178,238.358521 
	C145.804047,238.358521 162.540787,238.358521 180.000000,238.358521 
	C180.000000,246.463821 179.999969,254.875641 180.000000,263.287445 
	C180.000015,272.388702 182.641388,274.999542 191.850357,274.999939 
	C199.680771,275.000275 207.517044,275.175201 215.338745,274.913971 
	C218.476639,274.809174 220.515457,275.886810 222.623398,278.046967 
	C231.115814,286.749756 239.862228,295.204834 248.347427,303.914520 
	C251.765854,307.423401 255.698151,309.032013 260.510529,309.015961 
	C274.171997,308.970428 287.833679,309.000000 301.993713,309.000000 
M150.614777,377.000000 
	C155.035904,377.000000 159.457016,377.000000 163.668839,377.000000 
	C163.668839,370.596863 163.668839,364.854156 163.668839,359.334045 
	C157.590851,359.334045 151.847839,359.334045 146.000092,359.334045 
	C146.000092,364.324097 146.203720,368.992706 145.928192,373.632874 
	C145.745804,376.704224 147.032959,377.395721 150.614777,377.000000 
M146.000000,333.510345 
	C146.000000,336.613342 146.000000,339.716339 146.000000,342.706268 
	C152.324982,342.706268 158.063507,342.706268 163.703888,342.706268 
	C163.703888,336.670135 163.703888,330.931427 163.703888,325.298645 
	C157.665344,325.298645 151.926559,325.298645 146.000000,325.298645 
	C146.000000,327.907745 146.000000,330.222565 146.000000,333.510345 
M263.322693,393.000244 
	C258.236145,393.000244 253.149567,393.000244 248.353638,393.000244 
	C248.353638,399.449005 248.353638,405.194031 248.353638,410.643158 
	C254.455521,410.643158 260.200836,410.643158 265.999756,410.643158 
	C265.999756,405.457001 266.090363,400.624329 265.922302,395.800659 
	C265.889221,394.850616 264.858521,393.935272 263.322693,393.000244 
M217.647522,411.000000 
	C222.400833,411.000000 227.154144,411.000000 231.657669,411.000000 
	C231.657669,404.573608 231.657669,398.829926 231.657669,393.345062 
	C225.567871,393.345062 219.824142,393.345062 214.000244,393.345062 
	C214.000244,398.515747 213.852875,403.349976 214.121643,408.160919 
	C214.176987,409.151703 215.785110,410.055725 217.647522,411.000000 
M180.003906,409.287476 
	C180.602081,409.857117 181.188400,410.906067 181.800293,410.921234 
	C187.081451,411.051941 192.367218,410.996460 197.780457,410.996460 
	C197.780457,404.827606 197.780457,399.089691 197.780457,393.222687 
	C191.821182,393.222687 186.083282,393.222687 180.000275,393.222687 
	C180.000275,398.399017 180.000275,403.360687 180.003906,409.287476 
M155.491882,411.000000 
	C158.261108,411.000000 161.030319,411.000000 163.713821,411.000000 
	C163.713821,404.688202 163.713821,398.951050 163.713821,393.287781 
	C157.686111,393.287781 151.948349,393.287781 146.289459,393.287781 
	C146.289459,399.317078 146.289459,405.054840 146.289459,411.000000 
	C149.221542,411.000000 151.865982,411.000000 155.491882,411.000000 
M282.745575,359.057007 
	C282.393982,364.901276 282.042389,370.745544 281.678650,376.792175 
	C288.148193,376.792175 293.885864,376.792175 299.789307,376.792175 
	C299.789307,370.845764 299.789307,365.108093 299.789307,359.003967 
	C294.295013,359.003967 289.003723,359.003967 282.745575,359.057007 
M248.000275,374.325439 
	C248.778793,375.216461 249.523224,376.840759 250.341400,376.878815 
	C255.444565,377.116058 260.564209,376.998474 265.768494,376.998474 
	C265.768494,370.801758 265.768494,365.064117 265.768494,359.233948 
	C259.796814,359.233948 254.059113,359.233948 248.000000,359.233948 
	C248.000000,364.091766 248.000000,368.722321 248.000275,374.325439 
M216.677292,376.999756 
	C221.763855,376.999756 226.850418,376.999756 231.646362,376.999756 
	C231.646362,370.550903 231.646362,364.806000 231.646362,359.356842 
	C225.544479,359.356842 219.799164,359.356842 214.000244,359.356842 
	C214.000244,364.542999 213.909637,369.375671 214.077698,374.199371 
	C214.110794,375.149414 215.141495,376.064728 216.677292,376.999756 
M180.000000,363.614777 
	C180.000000,368.035889 180.000000,372.457001 180.000000,376.668854 
	C186.403152,376.668854 192.145889,376.668854 197.665924,376.668854 
	C197.665924,370.590881 197.665924,364.847870 197.665924,359.000092 
	C192.675888,359.000092 188.007278,359.203735 183.367142,358.928192 
	C180.295792,358.745789 179.604324,360.032990 180.000000,363.614777 
M282.000000,397.614777 
	C282.000000,402.035889 282.000000,406.457001 282.000000,410.668854 
	C288.403137,410.668854 294.145874,410.668854 299.665924,410.668854 
	C299.665924,404.590881 299.665924,398.847870 299.665924,393.000092 
	C294.675873,393.000092 290.007263,393.203735 285.367126,392.928192 
	C282.295776,392.745789 281.604309,394.032959 282.000000,397.614777 
M146.000000,440.388550 
	C146.000000,441.829712 146.000000,443.270905 146.000000,444.749298 
	C152.238770,444.749298 157.976440,444.749298 163.747314,444.749298 
	C163.747314,438.757477 163.747314,433.019623 163.747314,427.254700 
	C157.753403,427.254700 152.015564,427.254700 146.000000,427.254700 
	C146.000000,431.474487 146.000000,435.442841 146.000000,440.388550 
M184.614777,445.000000 
	C189.035904,445.000000 193.457016,445.000000 197.668839,445.000000 
	C197.668839,438.596863 197.668839,432.854156 197.668839,427.334045 
	C191.590851,427.334045 185.847839,427.334045 180.000092,427.334045 
	C180.000092,432.324097 180.203720,436.992706 179.928192,441.632874 
	C179.745804,444.704224 181.032959,445.395721 184.614777,445.000000 
M223.489624,427.000000 
	C220.386627,427.000000 217.283615,427.000000 214.293747,427.000000 
	C214.293747,433.325012 214.293747,439.063538 214.293747,444.703888 
	C220.329895,444.703888 226.068619,444.703888 231.701385,444.703888 
	C231.701385,438.665314 231.701385,432.926514 231.701385,427.000000 
	C229.092087,427.000000 226.777344,427.000000 223.489624,427.000000 
M261.385223,427.000000 
	C256.964111,427.000000 252.542984,427.000000 248.331146,427.000000 
	C248.331146,433.403137 248.331146,439.145844 248.331146,444.665924 
	C254.409134,444.665924 260.152130,444.665924 265.999908,444.665924 
	C265.999908,439.675873 265.796295,435.007263 266.071838,430.367126 
	C266.254211,427.295776 264.967041,426.604309 261.385223,427.000000 
M286.614777,445.000000 
	C291.035889,445.000000 295.457001,445.000000 299.668854,445.000000 
	C299.668854,438.596863 299.668854,432.854126 299.668854,427.334076 
	C293.590881,427.334076 287.847870,427.334076 282.000092,427.334076 
	C282.000092,432.324127 282.203766,436.992737 281.928223,441.632874 
	C281.745789,444.704224 283.032959,445.395691 286.614777,445.000000 
M146.000275,463.677307 
	C146.000275,468.763855 146.000275,473.850403 146.000275,478.646362 
	C152.449036,478.646362 158.194046,478.646362 163.643158,478.646362 
	C163.643158,472.544495 163.643158,466.799194 163.643158,461.000244 
	C158.456985,461.000244 153.624313,460.909637 148.800659,461.077667 
	C147.850586,461.110779 146.935272,462.141510 146.000275,463.677307 
M198.000000,468.537445 
	C198.000000,466.102448 198.000000,463.667419 198.000000,461.277039 
	C191.707611,461.277039 185.969467,461.277039 180.279419,461.277039 
	C180.279419,467.297119 180.279419,473.035126 180.279419,478.718201 
	C186.301880,478.718201 192.039688,478.718201 198.000000,478.718201 
	C198.000000,475.462524 198.000000,472.486481 198.000000,468.537445 
M221.538879,479.000000 
	C224.971146,479.000000 228.403412,479.000000 231.697174,479.000000 
	C231.697174,472.655243 231.697174,466.916168 231.697174,461.304626 
	C225.650757,461.304626 219.913086,461.304626 214.306732,461.304626 
	C214.306732,467.352173 214.306732,473.091431 214.306732,479.000000 
	C216.594772,479.000000 218.577209,479.000000 221.538879,479.000000 
M251.647186,461.000000 
	C250.038239,461.180542 247.842712,460.133636 247.954422,463.365143 
	C248.130905,468.470795 248.001419,473.587036 248.001419,478.757904 
	C254.219589,478.757904 259.957581,478.757904 265.755035,478.757904 
	C265.755035,472.774567 265.755035,467.036285 265.755035,461.000000 
	C261.216034,461.000000 256.915405,461.000000 251.647186,461.000000 
M284.677307,478.999756 
	C289.763855,478.999756 294.850403,478.999756 299.646362,478.999756 
	C299.646362,472.550995 299.646362,466.805969 299.646362,461.356842 
	C293.544495,461.356842 287.799164,461.356842 282.000244,461.356842 
	C282.000244,466.542999 281.909637,471.375671 282.077698,476.199341 
	C282.110779,477.149384 283.141479,478.064728 284.677307,478.999756 
M248.000000,333.510345 
	C248.000000,336.613342 248.000000,339.716339 248.000000,342.706268 
	C254.324982,342.706268 260.063507,342.706268 265.703888,342.706268 
	C265.703888,336.670135 265.703888,330.931396 265.703888,325.298645 
	C259.665314,325.298645 253.926559,325.298645 248.000000,325.298645 
	C248.000000,327.907928 248.000000,330.222656 248.000000,333.510345 
M227.388550,343.000000 
	C228.829727,343.000000 230.270905,343.000000 231.749298,343.000000 
	C231.749298,336.760956 231.749298,331.023315 231.749298,325.252686 
	C225.757446,325.252686 220.019592,325.252686 214.254684,325.252686 
	C214.254684,331.246643 214.254684,336.984467 214.254684,343.000000 
	C218.474503,343.000000 222.442856,343.000000 227.388550,343.000000 
M197.942978,325.745575 
	C192.098694,325.393982 186.254410,325.042419 180.207825,324.678650 
	C180.207825,331.148254 180.207825,336.885895 180.207825,342.789276 
	C186.154251,342.789276 191.891922,342.789276 197.996063,342.789276 
	C197.996063,337.295532 197.996063,332.003967 197.942978,325.745575 
M299.996094,326.712524 
	C299.397919,326.142883 298.811615,325.093872 298.199707,325.078705 
	C292.918549,324.947968 287.632782,325.003540 282.219543,325.003540 
	C282.219543,331.172333 282.219543,336.910217 282.219543,342.777313 
	C288.178833,342.777313 293.916748,342.777313 299.999756,342.777313 
	C299.999756,337.600983 299.999756,332.639313 299.996094,326.712524 
M230.287521,308.996094 
	C230.857162,308.397919 231.906097,307.811615 231.921234,307.199707 
	C232.051971,301.918549 231.996445,296.632782 231.996445,291.219543 
	C225.827667,291.219543 220.089767,291.219543 214.222687,291.219543 
	C214.222687,297.178833 214.222687,302.916748 214.222687,308.999756 
	C219.399567,308.999756 224.360977,308.999756 230.287521,308.996094 
M194.352478,291.000000 
	C189.599167,291.000000 184.845856,291.000000 180.342331,291.000000 
	C180.342331,297.426392 180.342331,303.170074 180.342331,308.654938 
	C186.432129,308.654938 192.175858,308.654938 197.999756,308.654938 
	C197.999756,303.484253 198.147156,298.650024 197.878387,293.839081 
	C197.823029,292.848328 196.214874,291.944275 194.352478,291.000000 
M146.000000,305.352783 
	C146.180618,306.961670 145.133575,309.157227 148.365097,309.045532 
	C153.470779,308.869080 158.587006,308.998566 163.757935,308.998566 
	C163.757935,302.780518 163.757935,297.042328 163.757935,291.244934 
	C157.774612,291.244934 152.036331,291.244934 146.000000,291.244934 
	C146.000000,295.783936 146.000000,300.084534 146.000000,305.352783 
z"/>
<path fill="#FFFFFF" opacity="1.000000" stroke="none" 
	d="
M274.052307,206.000000 
	C288.182587,206.000000 301.821106,206.000000 315.729187,206.000000 
	C315.729187,234.319656 315.729187,262.389282 315.729187,290.729858 
	C299.345642,290.729858 282.941467,290.729858 266.267914,290.729858 
	C266.267914,262.674500 266.267914,234.604919 266.267914,206.000000 
	C268.685699,206.000000 271.123108,206.000000 274.052307,206.000000 
z"/>
<path fill="#FFFFFF" opacity="1.000000" stroke="none" 
	d="
M242.888779,206.000000 
	C244.819473,206.000000 246.261612,206.000000 247.848160,206.000000 
	C247.848160,229.778427 247.848160,253.067139 247.848160,277.295258 
	C245.924820,275.393219 244.411621,273.831726 242.829163,272.343903 
	C237.899460,267.709167 233.015671,263.020386 227.939758,258.550507 
	C226.864075,257.603241 225.056396,257.091583 223.574493,257.066864 
	C215.261230,256.928101 206.944443,257.000000 198.314911,257.000000 
	C198.314911,240.107178 198.314911,223.372147 198.314911,206.000000 
	C212.899261,206.000000 227.649750,206.000000 242.888779,206.000000 
z"/>
<path fill="#FFFFFF" opacity="1.000000" stroke="none" 
	d="
M19.000196,336.414062 
	C19.000023,329.844757 19.000023,323.716461 19.000023,317.295044 
	C35.568367,317.295044 51.939335,317.295044 68.989319,317.295044 
	C68.989319,323.982422 69.263428,330.896088 68.875252,337.772400 
	C68.677124,341.282043 57.068939,349.994751 53.506783,349.998901 
	C49.519047,350.003571 45.375660,349.294830 41.573158,350.134094 
	C30.781179,352.516083 25.350595,345.182617 19.330269,338.723602 
	C18.968475,338.335449 19.098951,337.488495 19.000196,336.414062 
z"/>
<path fill="#FFFFFF" opacity="1.000000" stroke="none" 
	d="
M411.000000,23.137487 
	C410.607727,20.044983 411.281158,18.711586 414.362793,18.931208 
	C418.333282,19.214178 422.339203,19.000101 426.664673,19.000101 
	C426.664673,38.185139 426.664673,57.256195 426.664673,76.664215 
	C404.686676,76.664215 382.493164,76.664215 360.149139,76.664215 
	C360.149139,74.578491 360.149139,72.616432 360.149139,70.000000 
	C364.153992,70.000000 368.250885,70.000000 372.347809,70.000000 
	C381.679138,69.999992 391.010712,70.042519 400.341705,69.986359 
	C407.635101,69.942467 410.996185,66.460411 410.998871,59.115181 
	C411.003204,47.284401 411.000000,35.453621 411.000000,23.137487 
z"/>
<path fill="#FFFFFF" opacity="1.000000" stroke="none" 
	d="
M380.986084,19.000000 
	C385.128510,19.000000 388.774017,19.000000 392.708130,19.000000 
	C392.708130,29.940388 392.708130,40.677582 392.708130,51.708626 
	C382.058533,51.708626 371.321381,51.708626 360.290863,51.708626 
	C360.290863,41.057499 360.290863,30.320322 360.290863,19.000000 
	C366.961334,19.000000 373.725250,19.000000 380.986084,19.000000 
z"/>
<path fill="#FFFFFF" opacity="1.000000" stroke="none" 
	d="
M146.001526,220.000000 
	C140.192123,220.000000 134.882431,220.000000 129.287216,220.000000 
	C129.287216,215.385406 129.287216,210.979614 129.287216,206.284241 
	C145.952454,206.284241 162.688293,206.284241 179.712830,206.284241 
	C179.712830,210.614670 179.712830,215.020462 179.712830,220.000000 
	C168.692993,220.000000 157.597122,220.000000 146.001526,220.000000 
z"/>
<path fill="#FFFFFF" opacity="1.000000" stroke="none" 
	d="
M32.575714,493.976440 
	C39.099991,487.495758 45.343491,481.283875 51.144608,475.512177 
	C57.718689,482.080322 64.298561,488.654297 69.894539,494.245239 
	C58.449604,494.245239 45.372269,494.245239 32.575714,493.976440 
z"/>
<path fill="#FFFFFF" opacity="1.000000" stroke="none" 
	d="
M385.027954,413.977448 
	C385.002899,399.905029 385.002899,386.241486 385.002899,371.631531 
	C390.052765,379.119965 394.661438,385.932770 399.220764,392.778442 
	C399.448883,393.121002 399.450317,393.889313 399.217926,394.223206 
	C394.526123,400.965027 389.784576,407.672211 385.027954,413.977448 
z"/>
<path fill="#FFFFFF" opacity="1.000000" stroke="none" 
	d="
M394.999939,149.002045 
	C392.998932,145.860840 390.696320,143.256653 389.201447,140.250793 
	C388.437225,138.714127 388.402344,136.015640 389.272644,134.603104 
	C393.102509,128.387161 397.382416,122.448502 401.825500,115.930756 
	C401.825500,130.500412 401.825500,144.486710 401.825500,158.975204 
	C399.381165,155.519821 397.206970,152.446304 394.999939,149.002045 
z"/>
<path fill="#FFFFFF" opacity="1.000000" stroke="none" 
	d="
M388.997833,274.984161 
	C392.137787,279.857452 395.382172,284.273132 398.245911,288.923248 
	C398.891632,289.971710 398.742493,292.170807 398.052277,293.271515 
	C394.143707,299.504578 389.959229,305.564575 385.373230,312.424744 
	C385.373230,297.910278 385.373230,284.211792 385.373230,269.896667 
	C386.735565,271.685120 387.850098,273.148224 388.997833,274.984161 
z"/>
<path fill="#FFFFFF" opacity="1.000000" stroke="none" 
	d="
M398.263184,223.312164 
	C399.419830,221.771164 400.348969,220.531921 401.745270,218.669601 
	C401.745270,233.120361 401.745270,246.787674 401.745270,260.997955 
	C397.351196,254.488419 393.044678,248.398895 389.139801,242.061920 
	C388.418091,240.890762 388.796661,238.424316 389.566101,237.064011 
	C392.171631,232.457535 395.180756,228.079346 398.263184,223.312164 
z"/>
<path fill="#FFFFFF" opacity="1.000000" stroke="none" 
	d="
M396.003906,193.958801 
	C392.511475,199.372040 389.052582,204.410675 385.375061,209.767776 
	C385.375061,195.866531 385.375061,182.172455 385.375061,167.751312 
	C390.045166,174.582382 394.608948,180.751801 398.452454,187.341339 
	C399.153778,188.543701 396.917633,191.459396 396.003906,193.958801 
z"/>
<path fill="#FFFFFF" opacity="1.000000" stroke="none" 
	d="
M401.071411,465.192322 
	C397.070282,459.079163 392.984558,453.456024 389.363312,447.548187 
	C388.552948,446.226105 388.717224,443.517700 389.552155,442.112732 
	C393.160919,436.039825 397.185303,430.213898 401.600037,423.470978 
	C401.785858,425.474213 401.983612,426.628448 401.985992,427.783112 
	C402.009247,439.101471 402.026917,450.420105 401.962860,461.738159 
	C401.955597,463.020111 401.436371,464.299164 401.071411,465.192322 
z"/>
<path fill="#FFFFFF" opacity="1.000000" stroke="none" 
	d="
M402.000000,324.543427 
	C402.000000,337.454254 402.000000,349.923676 402.000000,363.841064 
	C397.551880,357.259460 393.940521,351.561249 389.946259,346.145416 
	C387.723541,343.131561 388.057617,341.018005 390.243500,338.094696 
	C394.240143,332.749817 397.682709,326.990631 402.000000,320.425476 
	C402.000000,322.349457 402.000000,323.225739 402.000000,324.543427 
z"/>
<path fill="#FFFFFF" opacity="1.000000" stroke="none" 
	d="
M55.002144,293.012878 
	C56.310474,295.002625 57.586796,296.624847 59.263481,298.755920 
	C48.539536,298.755920 38.546654,298.755920 28.309650,298.755920 
	C31.359608,294.515472 34.319527,290.372070 37.309601,286.250549 
	C40.611851,281.698669 46.209591,281.695801 49.719410,286.185547 
	C51.428097,288.371307 53.217342,290.494080 55.002144,293.012878 
z"/>
<path fill="#FFFFFF" opacity="1.000000" stroke="none" 
	d="
M275.335815,53.751945 
	C270.806274,50.633347 266.582764,47.731403 261.723785,44.392845 
	C275.744568,44.392845 289.109894,44.392845 303.212463,44.392845 
	C296.391846,49.048256 290.038818,53.480976 283.531708,57.674683 
	C282.890930,58.087662 281.241516,57.164398 280.174194,56.632626 
	C278.609406,55.852993 277.147552,54.866783 275.335815,53.751945 
z"/>
<path fill="#FFFFFF" opacity="1.000000" stroke="none" 
	d="
M192.763733,49.734375 
	C191.806747,50.394802 191.093842,50.761166 190.421310,51.190720 
	C186.900986,53.439163 183.367523,57.503281 179.883835,57.457996 
	C176.377686,57.412422 172.928726,53.279835 169.446960,50.949722 
	C166.399765,48.910454 163.341766,46.887318 159.504120,44.335449 
	C173.738144,44.335449 187.068665,44.335449 200.940521,44.335449 
	C198.146286,46.148117 195.586365,47.808792 192.763733,49.734375 
z"/>
<path fill="#FFFFFF" opacity="1.000000" stroke="none" 
	d="
M73.015656,55.001259 
	C67.610626,51.507881 62.577480,48.047539 57.220215,44.364357 
	C70.805313,44.364357 84.166725,44.364357 98.322922,44.364357 
	C91.538513,48.962353 85.457405,53.369385 79.017693,57.168564 
	C77.936874,57.806206 75.303520,55.812275 73.015656,55.001259 
z"/>
<path fill="#FFFFFF" opacity="1.000000" stroke="none" 
	d="
M128.997787,46.037861 
	C135.815140,50.441795 142.260925,54.845737 149.422638,59.738815 
	C135.565323,59.738815 122.578690,59.738815 108.629784,59.738815 
	C115.658775,54.922771 122.142509,50.480320 128.997787,46.037861 
z"/>
<path fill="#FFFFFF" opacity="1.000000" stroke="none" 
	d="
M244.766983,55.268852 
	C246.927017,56.709557 248.824554,57.884624 251.626694,59.619865 
	C237.576630,59.619865 224.541779,59.619865 211.241943,59.619865 
	C217.353195,55.441723 223.215668,51.309891 229.248459,47.443863 
	C230.143478,46.870308 232.089691,47.124680 233.124664,47.726616 
	C237.013275,49.988235 240.725922,52.552406 244.766983,55.268852 
z"/>
<path fill="#FFFFFF" opacity="1.000000" stroke="none" 
	d="
M322.140869,60.000000 
	C319.258545,60.000000 316.853394,60.000000 314.448273,60.000000 
	C323.488678,54.454700 330.455780,45.789322 341.708862,43.282963 
	C341.708862,49.159321 341.708862,54.247520 341.708862,60.000000 
	C335.466309,60.000000 329.042206,60.000000 322.140869,60.000000 
z"/>
<path fill="#FFFFFF" opacity="1.000000" stroke="none" 
	d="
M19.014771,45.394180 
	C21.231199,45.033379 23.917950,44.350422 25.554630,45.363651 
	C32.726254,49.803429 39.593815,54.734364 47.030678,59.799782 
	C37.481552,59.799782 28.467970,59.799782 19.001793,59.799782 
	C19.001793,55.067535 19.001793,50.460117 19.014771,45.394180 
z"/>
<path fill="#FFFFFF" opacity="1.000000" stroke="none" 
	d="
M445.277405,479.699677 
	C447.757599,471.964355 451.094666,469.409485 455.863495,471.378540 
	C459.772308,472.992523 461.666077,476.151215 460.931335,480.324371 
	C460.248230,484.204437 457.117645,486.709259 453.655945,486.767059 
	C449.728424,486.832672 446.294891,484.591461 445.277405,479.699677 
z"/>
<path fill="#FFFFFF" opacity="1.000000" stroke="none" 
	d="
M481.089294,474.419037 
	C483.621368,471.235229 486.408508,469.941986 489.987244,471.479919 
	C493.285889,472.897491 494.968384,475.361908 495.038635,479.066803 
	C495.117737,483.238922 492.631317,485.085083 489.197174,486.364563 
	C485.713135,487.662628 481.010132,485.332489 480.252808,481.373535 
	C479.851196,479.273865 480.601624,476.953766 481.089294,474.419037 
z"/>
<path fill="#FFFFFF" opacity="1.000000" stroke="none" 
	d="
M470.082397,452.958618 
	C467.625183,451.312347 464.934570,450.045349 463.628662,447.925323 
	C461.328888,444.191650 463.618927,438.771301 467.534851,437.144012 
	C471.032867,435.690369 476.034058,438.158722 477.598694,442.059265 
	C478.845947,445.168488 477.857971,450.503845 472.662781,452.007843 
	C471.904968,452.227264 471.201294,452.633759 470.082397,452.958618 
z"/>
<path fill="#FFFFFF" opacity="1.000000" stroke="none" 
	d="
M463.152496,44.001503 
	C463.606445,44.594082 463.891785,45.558449 463.645508,45.721951 
	C457.572571,49.753262 451.443298,53.699741 445.095062,57.809612 
	C445.095062,53.190701 445.095062,48.930656 445.095062,44.000156 
	C450.969208,44.000156 456.852692,44.000156 463.152496,44.001503 
z"/>
<path fill="#FFFFFF" opacity="1.000000" stroke="none" 
	d="
M396.281067,490.779602 
	C397.238129,492.253082 397.924225,493.461914 398.724365,494.871674 
	C394.217133,494.871674 389.960938,494.871674 385.352020,494.871674 
	C385.352020,488.461517 385.352020,481.985260 385.352020,474.583344 
	C389.177032,480.300934 392.593567,485.407928 396.281067,490.779602 
z"/>
<path fill="#FFFFFF" opacity="1.000000" stroke="none" 
	d="
M494.997650,57.850452 
	C494.227661,58.884003 493.471802,59.903492 492.689758,59.924011 
	C487.297089,60.065475 481.898895,59.998440 474.968445,59.998440 
	C482.300262,55.155323 488.422607,51.111149 494.999695,46.766571 
	C494.999695,50.809177 494.999695,54.091652 494.997650,57.850452 
z"/>
<path fill="#FFFFFF" opacity="1.000000" stroke="none" 
	d="
M385.000122,104.345810 
	C385.000000,101.132027 385.000000,98.345123 385.000000,95.280151 
	C387.725616,95.280151 390.236542,95.280151 393.388733,95.280151 
	C390.747711,99.321274 388.346283,102.995827 385.534698,107.297958 
	C385.273499,106.063896 385.136841,105.418289 385.000122,104.345810 
z"/>
<path fill="#000000" opacity="1.000000" stroke="none" 
	d="
M150.130951,377.000000 
	C147.032959,377.395721 145.745804,376.704224 145.928192,373.632874 
	C146.203720,368.992706 146.000092,364.324097 146.000092,359.334045 
	C151.847839,359.334045 157.590851,359.334045 163.668839,359.334045 
	C163.668839,364.854156 163.668839,370.596863 163.668839,377.000000 
	C159.457016,377.000000 155.035904,377.000000 150.130951,377.000000 
z"/>
<path fill="#000000" opacity="1.000000" stroke="none" 
	d="
M146.000000,333.023865 
	C146.000000,330.222565 146.000000,327.907745 146.000000,325.298645 
	C151.926559,325.298645 157.665344,325.298645 163.703888,325.298645 
	C163.703888,330.931427 163.703888,336.670135 163.703888,342.706268 
	C158.063507,342.706268 152.324982,342.706268 146.000000,342.706268 
	C146.000000,339.716339 146.000000,336.613342 146.000000,333.023865 
z"/>
<path fill="#000000" opacity="1.000000" stroke="none" 
	d="
M263.805298,393.002075 
	C264.858521,393.935272 265.889221,394.850616 265.922302,395.800659 
	C266.090363,400.624329 265.999756,405.457001 265.999756,410.643158 
	C260.200836,410.643158 254.455521,410.643158 248.353638,410.643158 
	C248.353638,405.194031 248.353638,399.449005 248.353638,393.000244 
	C253.149567,393.000244 258.236145,393.000244 263.805298,393.002075 
z"/>
<path fill="#000000" opacity="1.000000" stroke="none" 
	d="
M217.162537,410.999878 
	C215.785110,410.055725 214.176987,409.151703 214.121643,408.160919 
	C213.852875,403.349976 214.000244,398.515747 214.000244,393.345062 
	C219.824142,393.345062 225.567871,393.345062 231.657669,393.345062 
	C231.657669,398.829926 231.657669,404.573608 231.657669,411.000000 
	C227.154144,411.000000 222.400833,411.000000 217.162537,410.999878 
z"/>
<path fill="#000000" opacity="1.000000" stroke="none" 
	d="
M180.002090,408.804901 
	C180.000275,403.360687 180.000275,398.399017 180.000275,393.222687 
	C186.083282,393.222687 191.821182,393.222687 197.780457,393.222687 
	C197.780457,399.089691 197.780457,404.827606 197.780457,410.996460 
	C192.367218,410.996460 187.081451,411.051941 181.800293,410.921234 
	C181.188400,410.906067 180.602081,409.857117 180.002090,408.804901 
z"/>
<path fill="#000000" opacity="1.000000" stroke="none" 
	d="
M155.001160,411.000000 
	C151.865982,411.000000 149.221542,411.000000 146.289459,411.000000 
	C146.289459,405.054840 146.289459,399.317078 146.289459,393.287781 
	C151.948349,393.287781 157.686111,393.287781 163.713821,393.287781 
	C163.713821,398.951050 163.713821,404.688202 163.713821,411.000000 
	C161.030319,411.000000 158.261108,411.000000 155.001160,411.000000 
z"/>
<path fill="#000000" opacity="1.000000" stroke="none" 
	d="
M283.229004,359.030487 
	C289.003723,359.003967 294.295013,359.003967 299.789307,359.003967 
	C299.789307,365.108093 299.789307,370.845764 299.789307,376.792175 
	C293.885864,376.792175 288.148193,376.792175 281.678650,376.792175 
	C282.042389,370.745544 282.393982,364.901276 283.229004,359.030487 
z"/>
<path fill="#000000" opacity="1.000000" stroke="none" 
	d="
M248.000137,373.839142 
	C248.000000,368.722321 248.000000,364.091766 248.000000,359.233948 
	C254.059113,359.233948 259.796814,359.233948 265.768494,359.233948 
	C265.768494,365.064117 265.768494,370.801758 265.768494,376.998474 
	C260.564209,376.998474 255.444565,377.116058 250.341400,376.878815 
	C249.523224,376.840759 248.778793,375.216461 248.000137,373.839142 
z"/>
<path fill="#000000" opacity="1.000000" stroke="none" 
	d="
M216.194702,376.997925 
	C215.141495,376.064728 214.110794,375.149414 214.077698,374.199371 
	C213.909637,369.375671 214.000244,364.542999 214.000244,359.356842 
	C219.799164,359.356842 225.544479,359.356842 231.646362,359.356842 
	C231.646362,364.806000 231.646362,370.550903 231.646362,376.999756 
	C226.850418,376.999756 221.763855,376.999756 216.194702,376.997925 
z"/>
<path fill="#000000" opacity="1.000000" stroke="none" 
	d="
M180.000000,363.130951 
	C179.604324,360.032990 180.295792,358.745789 183.367142,358.928192 
	C188.007278,359.203735 192.675888,359.000092 197.665924,359.000092 
	C197.665924,364.847870 197.665924,370.590881 197.665924,376.668854 
	C192.145889,376.668854 186.403152,376.668854 180.000000,376.668854 
	C180.000000,372.457001 180.000000,368.035889 180.000000,363.130951 
z"/>
<path fill="#000000" opacity="1.000000" stroke="none" 
	d="
M282.000000,397.130951 
	C281.604309,394.032959 282.295776,392.745789 285.367126,392.928192 
	C290.007263,393.203735 294.675873,393.000092 299.665924,393.000092 
	C299.665924,398.847870 299.665924,404.590881 299.665924,410.668854 
	C294.145874,410.668854 288.403137,410.668854 282.000000,410.668854 
	C282.000000,406.457001 282.000000,402.035889 282.000000,397.130951 
z"/>
<path fill="#000000" opacity="1.000000" stroke="none" 
	d="
M146.000000,439.899872 
	C146.000000,435.442841 146.000000,431.474487 146.000000,427.254700 
	C152.015564,427.254700 157.753403,427.254700 163.747314,427.254700 
	C163.747314,433.019623 163.747314,438.757477 163.747314,444.749298 
	C157.976440,444.749298 152.238770,444.749298 146.000000,444.749298 
	C146.000000,443.270905 146.000000,441.829712 146.000000,439.899872 
z"/>
<path fill="#000000" opacity="1.000000" stroke="none" 
	d="
M184.130951,445.000000 
	C181.032959,445.395721 179.745804,444.704224 179.928192,441.632874 
	C180.203720,436.992706 180.000092,432.324097 180.000092,427.334045 
	C185.847839,427.334045 191.590851,427.334045 197.668839,427.334045 
	C197.668839,432.854156 197.668839,438.596863 197.668839,445.000000 
	C193.457016,445.000000 189.035904,445.000000 184.130951,445.000000 
z"/>
<path fill="#000000" opacity="1.000000" stroke="none" 
	d="
M223.976105,427.000000 
	C226.777344,427.000000 229.092087,427.000000 231.701385,427.000000 
	C231.701385,432.926514 231.701385,438.665314 231.701385,444.703888 
	C226.068619,444.703888 220.329895,444.703888 214.293747,444.703888 
	C214.293747,439.063538 214.293747,433.325012 214.293747,427.000000 
	C217.283615,427.000000 220.386627,427.000000 223.976105,427.000000 
z"/>
<path fill="#000000" opacity="1.000000" stroke="none" 
	d="
M261.869049,427.000000 
	C264.967041,426.604309 266.254211,427.295776 266.071838,430.367126 
	C265.796295,435.007263 265.999908,439.675873 265.999908,444.665924 
	C260.152130,444.665924 254.409134,444.665924 248.331146,444.665924 
	C248.331146,439.145844 248.331146,433.403137 248.331146,427.000000 
	C252.542984,427.000000 256.964111,427.000000 261.869049,427.000000 
z"/>
<path fill="#000000" opacity="1.000000" stroke="none" 
	d="
M286.130951,445.000000 
	C283.032959,445.395691 281.745789,444.704224 281.928223,441.632874 
	C282.203766,436.992737 282.000092,432.324127 282.000092,427.334076 
	C287.847870,427.334076 293.590881,427.334076 299.668854,427.334076 
	C299.668854,432.854126 299.668854,438.596863 299.668854,445.000000 
	C295.457001,445.000000 291.035889,445.000000 286.130951,445.000000 
z"/>
<path fill="#000000" opacity="1.000000" stroke="none" 
	d="
M146.002106,463.194702 
	C146.935272,462.141510 147.850586,461.110779 148.800659,461.077667 
	C153.624313,460.909637 158.456985,461.000244 163.643158,461.000244 
	C163.643158,466.799194 163.643158,472.544495 163.643158,478.646362 
	C158.194046,478.646362 152.449036,478.646362 146.000275,478.646362 
	C146.000275,473.850403 146.000275,468.763855 146.002106,463.194702 
z"/>
<path fill="#000000" opacity="1.000000" stroke="none" 
	d="
M198.000000,469.023926 
	C198.000000,472.486481 198.000000,475.462524 198.000000,478.718201 
	C192.039688,478.718201 186.301880,478.718201 180.279419,478.718201 
	C180.279419,473.035126 180.279419,467.297119 180.279419,461.277039 
	C185.969467,461.277039 191.707611,461.277039 198.000000,461.277039 
	C198.000000,463.667419 198.000000,466.102448 198.000000,469.023926 
z"/>
<path fill="#000000" opacity="1.000000" stroke="none" 
	d="
M221.049271,479.000000 
	C218.577209,479.000000 216.594772,479.000000 214.306732,479.000000 
	C214.306732,473.091431 214.306732,467.352173 214.306732,461.304626 
	C219.913086,461.304626 225.650757,461.304626 231.697174,461.304626 
	C231.697174,466.916168 231.697174,472.655243 231.697174,479.000000 
	C228.403412,479.000000 224.971146,479.000000 221.049271,479.000000 
z"/>
<path fill="#000000" opacity="1.000000" stroke="none" 
	d="
M252.130997,461.000000 
	C256.915405,461.000000 261.216034,461.000000 265.755035,461.000000 
	C265.755035,467.036285 265.755035,472.774567 265.755035,478.757904 
	C259.957581,478.757904 254.219589,478.757904 248.001419,478.757904 
	C248.001419,473.587036 248.130905,468.470795 247.954422,463.365143 
	C247.842712,460.133636 250.038239,461.180542 252.130997,461.000000 
z"/>
<path fill="#000000" opacity="1.000000" stroke="none" 
	d="
M284.194702,478.997925 
	C283.141479,478.064728 282.110779,477.149384 282.077698,476.199341 
	C281.909637,471.375671 282.000244,466.542999 282.000244,461.356842 
	C287.799164,461.356842 293.544495,461.356842 299.646362,461.356842 
	C299.646362,466.805969 299.646362,472.550995 299.646362,478.999756 
	C294.850403,478.999756 289.763855,478.999756 284.194702,478.997925 
z"/>
<path fill="#000000" opacity="1.000000" stroke="none" 
	d="
M248.000000,333.023865 
	C248.000000,330.222656 248.000000,327.907928 248.000000,325.298645 
	C253.926559,325.298645 259.665314,325.298645 265.703888,325.298645 
	C265.703888,330.931396 265.703888,336.670135 265.703888,342.706268 
	C260.063507,342.706268 254.324982,342.706268 248.000000,342.706268 
	C248.000000,339.716339 248.000000,336.613342 248.000000,333.023865 
z"/>
<path fill="#000000" opacity="1.000000" stroke="none" 
	d="
M226.899887,343.000000 
	C222.442856,343.000000 218.474503,343.000000 214.254684,343.000000 
	C214.254684,336.984467 214.254684,331.246643 214.254684,325.252686 
	C220.019592,325.252686 225.757446,325.252686 231.749298,325.252686 
	C231.749298,331.023315 231.749298,336.760956 231.749298,343.000000 
	C230.270905,343.000000 228.829727,343.000000 226.899887,343.000000 
z"/>
<path fill="#000000" opacity="1.000000" stroke="none" 
	d="
M197.969513,326.228973 
	C197.996063,332.003967 197.996063,337.295532 197.996063,342.789276 
	C191.891922,342.789276 186.154251,342.789276 180.207825,342.789276 
	C180.207825,336.885895 180.207825,331.148254 180.207825,324.678650 
	C186.254410,325.042419 192.098694,325.393982 197.969513,326.228973 
z"/>
<path fill="#000000" opacity="1.000000" stroke="none" 
	d="
M299.997925,327.195099 
	C299.999756,332.639313 299.999756,337.600983 299.999756,342.777313 
	C293.916748,342.777313 288.178833,342.777313 282.219543,342.777313 
	C282.219543,336.910217 282.219543,331.172333 282.219543,325.003540 
	C287.632782,325.003540 292.918549,324.947968 298.199707,325.078705 
	C298.811615,325.093872 299.397919,326.142883 299.997925,327.195099 
z"/>
<path fill="#000000" opacity="1.000000" stroke="none" 
	d="
M229.804947,308.997925 
	C224.360977,308.999756 219.399567,308.999756 214.222687,308.999756 
	C214.222687,302.916748 214.222687,297.178833 214.222687,291.219543 
	C220.089767,291.219543 225.827667,291.219543 231.996445,291.219543 
	C231.996445,296.632782 232.051971,301.918549 231.921234,307.199707 
	C231.906097,307.811615 230.857162,308.397919 229.804947,308.997925 
z"/>
<path fill="#000000" opacity="1.000000" stroke="none" 
	d="
M194.837463,291.000122 
	C196.214874,291.944275 197.823029,292.848328 197.878387,293.839081 
	C198.147156,298.650024 197.999756,303.484253 197.999756,308.654938 
	C192.175858,308.654938 186.432129,308.654938 180.342331,308.654938 
	C180.342331,303.170074 180.342331,297.426392 180.342331,291.000000 
	C184.845856,291.000000 189.599167,291.000000 194.837463,291.000122 
z"/>
<path fill="#000000" opacity="1.000000" stroke="none" 
	d="
M146.000000,304.868958 
	C146.000000,300.084534 146.000000,295.783936 146.000000,291.244934 
	C152.036331,291.244934 157.774612,291.244934 163.757935,291.244934 
	C163.757935,297.042328 163.757935,302.780518 163.757935,308.998566 
	C158.587006,308.998566 153.470779,308.869080 148.365097,309.045532 
	C145.133575,309.157227 146.180618,306.961670 146.000000,304.868958 
z"/>
</svg>