<?xml version="1.0" encoding="utf-8"?>
<!-- Generator: Adobe Illustrator 28.1.0, SVG Export Plug-In . SVG Version: 6.00 Build 0)  -->
<svg version="1.1" id="Layer_1" xmlns="http://www.w3.org/2000/svg" xmlns:xlink="http://www.w3.org/1999/xlink" x="0px" y="0px"
	 viewBox="0 0 17.6 15" style="enable-background:new 0 0 17.6 15;" xml:space="preserve">
<style type="text/css">
	.st0{fill:#58595B;}
</style>
<path class="st0" d="M17.5,10.2l0-0.3l0,0c0,0,0,0,0,0l0,0c0,0,0,0,0,0c-0.2-4.7-4-8.4-8.7-8.4c-4.3,0-7.9,3.2-8.6,7.3
	c0,0.1,0,0.1,0,0.2c0,0,0,0,0,0c-0.1,0.4-0.1,0.8-0.1,1.2v2.2c0,0.6,0.4,1,1,1s1-0.4,1-1v-2.2c0-0.1,0-0.1,0-0.2H6
	c0,0.1,0,0.1,0,0.2v2.2c0,0.6,0.4,1,1,1s1-0.4,1-1v-2.2c0-2.1,1.7-3.8,3.8-3.8c2,0,3.7,1.6,3.8,3.5l0,2.5c0,0.6,0.4,1,1,1s1-0.4,1-1
	V10.2C17.5,10.3,17.5,10.3,17.5,10.2z M6.4,8h-4c0.9-2.6,3.4-4.5,6.3-4.5c1.3,0,2.5,0.4,3.5,1c-0.2,0-0.4-0.1-0.6-0.1
	C9.4,4.5,7.3,5.9,6.4,8z"/>
</svg>
