<?xml version="1.0" encoding="UTF-8"?>
<svg width="13px" height="19px" viewBox="0 0 13 19" version="1.1" xmlns="http://www.w3.org/2000/svg" xmlns:xlink="http://www.w3.org/1999/xlink">
    <!-- Generator: Sketch 52.6 (67491) - http://www.bohemiancoding.com/sketch -->
    <title>oil</title>
    <desc>Created with Sketch.</desc>
    <g id="Page-1" stroke="none" stroke-width="1" fill="none" fill-rule="evenodd">
        <g id="oil" fill="#EC2528" fill-rule="nonzero">
            <path d="M7.579,0.815 C7.44158131,0.333026691 7.00118077,0.000641024572 6.5,0.000641024572 C5.99881923,0.000641024572 5.55841869,0.333026691 5.421,0.815 C3.694,6.642 0,8.225 0,12.332 C-0.0111718257,14.0664063 0.667599918,15.7341112 1.88679316,16.9677471 C3.1059864,18.2013831 4.76558244,18.8997467 6.5,18.909 C8.23441756,18.8997467 9.8940136,18.2013831 11.1132068,16.9677471 C12.3324001,15.7341112 13.0111718,14.0664063 13,12.332 C13,8.2 9.315,6.668 7.579,0.815 Z M6.5,16.545 C4.21689243,16.5422449 2.36675505,14.6921076 2.364,12.409 C2.364,12.0825997 2.62859971,11.818 2.955,11.818 C3.28140029,11.818 3.546,12.0825997 3.546,12.409 C3.54820343,14.0395356 4.86946441,15.3607966 6.5,15.363 C6.71114397,15.363 6.90624905,15.4756439 7.01182104,15.6585 C7.11739303,15.841356 7.11739303,16.066644 7.01182104,16.2495 C6.90624905,16.4323561 6.71114397,16.545 6.5,16.545 Z" id="tint-solid"></path>
        </g>
    </g>
</svg>