<?xml version="1.0" encoding="UTF-8"?>
<svg width="13px" height="21px" viewBox="0 0 13 21" version="1.1" xmlns="http://www.w3.org/2000/svg" xmlns:xlink="http://www.w3.org/1999/xlink">
    <!-- Generator: Sketch 52.6 (67491) - http://www.bohemiancoding.com/sketch -->
    <title>power</title>
    <desc>Created with Sketch.</desc>
    <g id="Page-1" stroke="none" stroke-width="1" fill="none" fill-rule="evenodd">
        <g id="power" fill="#EC2528">
            <path d="M12.026,6.5 L7.338,6.5 L9.068,1.227 C9.14463209,0.934372296 9.08168683,0.62275383 8.89747904,0.38281438 C8.71327125,0.142874931 8.42849132,0.00156474135 8.126,0 L2.276,0 C1.78842185,0.00108350237 1.37644234,0.361832407 1.311,0.845 L0.011,10.595 C-0.0242723444,10.8729364 0.0614709489,11.152641 0.246448336,11.36306 C0.431425722,11.5734789 0.697835118,11.6943616 0.978,11.695 L5.798,11.695 L3.925,19.6 C3.81280862,20.070829 4.06337226,20.5526103 4.51326574,20.7311115 C4.96315921,20.9096128 5.47587314,20.7306721 5.717,20.311 L12.867,7.961 C13.0414316,7.66011471 13.0420013,7.28900552 12.8684943,6.9875861 C12.6949873,6.68616669 12.3737905,6.50027692 12.026,6.5 Z" id="bolt-solid"></path>
        </g>
    </g>
</svg>